<?xml version="1.0" encoding="utf-8" ?>
<svg baseProfile="full" height="200mm" version="1.1" viewBox="0,0,200,200" width="200mm" xmlns="http://www.w3.org/2000/svg" xmlns:ev="http://www.w3.org/2001/xml-events" xmlns:xlink="http://www.w3.org/1999/xlink"><defs /><rect fill="#1a1a1a" height="200" width="200" x="0" y="0" /><text alignment-baseline="middle" fill="#e1ed5e" style="dominant-baseline: central; font-size:9.0px; font-family:Arial;" text-anchor="middle" x="100.0" y="100.0">2024</text><line stroke="#e1ed5e" stroke-width="0.3" x1="100.0" x2="100.0" y1="15.0" y2="10.0" /><path d="M 100.0 14.0 a86.0,86.0 0 0,1 42.35913384403234,11.155469271406648" fill="none" id="id37" stroke="none" /><text fill="#e1ed5e" style="font-size:6.75px; font-family:Arial;" text-anchor="middle"><textPath startOffset="22.145653131862478" xlink:href="#id37">January</textPath></text><path d="M 100.0 79.0 l 0.0 -10.310255212287565 a31.310255212287565,31.310255212287565 0 0,0 0.5374821656781735,0.004613637961723757 l -0.17698924082931877 10.308735972520276" fill="#ff5c08" stroke="none" /><path d="M 100.36049292484886 79.00309439819443 l 0.3019697056351702 -17.588221478923778 a38.59081352566723,38.59081352566723 0 0,0 0.6622673997061534,0.017057658992235512 l -0.6038504194120651 17.580446102581497" fill="#ffc212" stroke="none" /><path d="M 100.72087961077811 79.0123766808444 l 0.743298903924151 -21.64033657750797 a42.65309817204929,42.65309817204929 0 0,0 0.7315498662921769,0.03141589892392803 l -1.1146745308171642 21.62438811015821" fill="#fff717" stroke="none" /><path d="M 101.08105385017728 79.02784411241856 l 0.416677873943137 -8.08343943810798 a29.09417158208258,29.09417158208258 0 0,0 0.49855723637331567,0.029991965313387953 l -0.555379462448915 8.0750954949699" fill="#ff3b05" stroke="none" /><path d="M 102.87502721639298 79.19773525538626 l 3.2157612328893204 -23.267646351520796 a44.48881621211237,44.48881621211237 0 0,0 0.7556211344806869,0.11105028552581953 l -3.614707472977689 23.209014992696094" fill="#efff19" stroke="none" /><path d="M 103.23170211078529 79.25015418208739 l 3.188850375124201 -20.474706935207358 a41.72154412194125,41.72154412194125 0 0,0 0.706728183406593,0.11629185363794037 l -3.539856061583864 20.41694908307375" fill="#ffeb16" stroke="none" /><path d="M 104.29559338865022 79.4440306129975 l 7.991901666672216 -38.24414257599687 a60.07025638030719,60.07025638030719 0 0,0 1.0075715209746878,0.2195955234214219 l -8.647235604266038 38.10131559444173" fill="#3cff2e" stroke="none" /><path d="M 105.3480935250658 79.69241777938227 l 1.5084389234354763 -5.727788289205192 a26.92308590784325,26.92308590784325 0 0,0 0.44592142966575976,0.12153786857992156 l -1.6065417540359288 5.7010499264811285" fill="#ff1b02" stroke="none" /><path d="M 106.04205211174951 79.88797359093562 l 7.264751755547118 -24.18199586175928 a46.249664194358466,46.249664194358466 0 0,0 0.7584050043747099,0.23495580900242466 l -7.678797392793458 24.05372346495021" fill="#d9ff1c" stroke="none" /><path d="M 106.72888874123014 80.10723608172694 l 9.371066156106858 -27.70389196119667 a50.245897331075156,50.245897331075156 0 0,0 0.8146875247452243,0.2833906112804866 l -9.845259452897102 27.538942917347594" fill="#a9ff21" stroke="none" /><path d="M 108.4095320186766 80.7573450057729 l 4.001031021364168 -9.155141973931949 a30.991239852829526,30.991239852829526 0 0,0 0.4856572221167907,0.2172282981423618 l -4.15760164633659 9.085109924879735" fill="#ff5708" stroke="none" /><path d="M 108.73861861582097 80.90454125486305 l 16.774481529000248 -36.655269452790215 a61.31118962798575,61.31118962798575 0 0,0 0.9532759704524603,0.44618128789725703 l -17.401246213324214 36.361911933322425" fill="#30ff2f" stroke="none" /><path d="M 109.06512990194946 81.05736502329252 l 6.916900107062548 -14.453660931020742 a37.02347719441686,37.02347719441686 0 0,0 0.5709368393376905,0.2792738181299348 l -7.163997195662306 14.332793362793588" fill="#ffad10" stroke="none" /><path d="M 109.3889696526874 81.21577127319529 l 13.587507536091229 -27.184116982641 a51.39073176429365,51.39073176429365 0 0,0 0.7857221440825712,0.40119532526048846 l -14.052156901887379 26.94686370570768" fill="#9cff22" stroke="none" /><line stroke="#e1ed5e" stroke-width="0.3" x1="143.13028292997686" x2="145.6673583964461" y1="26.7553504044142" y2="22.446841604673864" /><path d="M 143.63769802327073 25.89364864446614 a86.0,86.0 0 0,1 29.32050498858742,28.57503671076993" fill="none" id="id38" stroke="none" /><text fill="#e1ed5e" style="font-size:6.75px; font-family:Arial;" text-anchor="middle"><textPath startOffset="20.669276256404974" xlink:href="#id38">February</textPath></text><path d="M 114.91283532996326 85.21462403516908 l 9.425577314636879 -9.345017308846733 a34.27293698534135,34.27293698534135 0 0,0 0.4106439670875424,0.42135688599082616 l -9.584608082875233 9.181837730788166" fill="#ff860c" stroke="none" /><path d="M 115.16444852881244 85.47280134310134 l 8.372153947937383 -8.020334096339829 a32.593908777667465,32.593908777667465 0 0,0 0.3835902100063345,0.4073595101185199 l -8.508599991679977 7.875433126276814" fill="#ff6e0a" stroke="none" /><path d="M 116.7966241395341 87.39550010848427 l 7.483609500679089 -5.6158400852370365 a30.356391987385386,30.356391987385386 0 0,0 0.3091986161344509,0.4194873061000055 l -7.578910136397366 5.4865464698681565" fill="#ff4e07" stroke="none" /><path d="M 117.01052211995028 87.68569379921539 l 11.954146631362095 -8.653880283605366 a35.75775273024587,35.75775273024587 0 0,0 0.3556787931355923,0.5003067654207927 l -12.100940523027647 8.44739629147507" fill="#ff9b0e" stroke="none" /><path d="M 117.21940702142032 87.97951657250589 l 17.509698957812887 -12.223129744304051 a42.35402674764936,42.35402674764936 0 0,0 0.4110564446842466,0.5997436373649997 l -17.71694513931246 11.920751371869002" fill="#fff316" stroke="none" /><path d="M 117.42321728460499 88.27688183743584 l 19.211628411844405 -12.926440983223541 a44.155551013257025,44.155551013257025 0 0,0 0.41774423201540084,0.6325180108482799 l -19.43069708278053 12.594743094036204" fill="#f3ff19" stroke="none" /><path d="M 117.81537515405839 88.88188828441811 l 12.75809122645867 -7.961992509657586 a36.03869065000292,36.03869065000292 0 0,0 0.32303029044819564,0.5276457027783307 l -12.89288948136227 7.7418096907547005" fill="#ff9f0e" stroke="none" /><line stroke="#e1ed5e" stroke-width="0.3" x1="172.87174338648825" x2="177.1583165268699" y1="56.24261187166439" y2="53.66864786411523" /><path d="M 173.72905801456457 55.72781907015455 a86.0,86.0 0 0,1 12.242430191666344,42.057860355516425" fill="none" id="id39" stroke="none" /><text fill="#e1ed5e" style="font-size:6.75px; font-family:Arial;" text-anchor="middle"><textPath startOffset="22.145653131862474" xlink:href="#id39">March</textPath></text><path d="M 118.36410011445183 89.81374322990088 l 12.601018824553888 -6.989572726776106 a35.409712083163,35.409712083163 0 0,0 0.2902831716142072,0.5340883404951341 l -12.719147345783437 6.772229552806368" fill="#ff960d" stroke="none" /><path d="M 118.8641267826498 90.77261029715802 l 9.409662493239647 -4.6027374496441675 a31.47506278105472,31.47506278105472 0 0,0 0.23324631551171868,0.48739509110071283 l -9.487288066711278 4.440529856478351" fill="#ff5e08" stroke="none" /><path d="M 120.26092885502905 94.47779374421319 l 8.575832289623953 -2.3373812255692865 a29.888658529463296,29.888658529463296 0 0,0 0.1306711075066739,0.49617947911976884 l -8.614692877935358 2.1898212420767194" fill="#ff4706" stroke="none" /><path d="M 120.65975698304385 96.23510406497455 l 13.339732570252638 -2.4309436441721086 a34.559422998306374,34.559422998306374 0 0,0 0.10134992251017964,0.5845594203448916 l -13.379497310255053 2.2015911909066244" fill="#ff8a0c" stroke="none" /><path d="M 120.7213421655516 96.59031103205396 l 33.826251424038766 -5.566096799427269 a55.28114232319103,55.28114232319103 0 0,0 0.14604358518965876,0.9377045815166964 l -33.91681650136669 4.984604035979132" fill="#70ff27" stroke="none" /><path d="M 120.99303781780057 99.45929381324524 l 29.2100172097745 -0.7523464282594651 a50.21970449103545,50.21970449103545 0 0,0 0.014799432206550082,0.8619927315674217 l -29.218628073579715 0.25080678072297696" fill="#a9ff21" stroke="none" /><line stroke="#e1ed5e" stroke-width="0.3" x1="184.99686870605535" x2="189.99668451229388" y1="99.2704041080226" y2="99.22748670261217" /><path d="M 185.99683186730306 99.26182062694052 a86.0,86.0 0 0,1 -10.086455211305974,41.156179273409016" fill="none" id="id40" stroke="none" /><text fill="#e1ed5e" style="font-size:6.75px; font-family:Arial;" text-anchor="middle"><textPath startOffset="21.40746469413373" xlink:href="#id40">April</textPath></text><path d="M 120.98066250479742 100.90099992219065 l 29.190609999690917 1.2535703928512765 a50.21751445424283,50.21751445424283 0 0,0 -0.04437891665296831,0.8609391271447216 l -29.164789493581377 -1.7544813133727286" fill="#a9ff21" stroke="none" /><path d="M 120.51834098615036 104.47187691870673 l 10.747046214206568 2.3422687020370896 a31.999328388716933,31.999328388716933 0 0,0 -0.12158089727948122,0.5357078665944472 l -10.705254455369422 -2.526410902570554" fill="#ff6609" stroke="none" /><path d="M 120.43855184770803 104.8234425847677 l 13.157712431895165 3.105184307333771 a34.51915552181276,34.51915552181276 0 0,0 -0.14105591037597223,0.5755562497814236 l -13.102468995002898 -3.330596381723294" fill="#ff8a0c" stroke="none" /><path d="M 119.94978838288452 106.5578916946017 l 5.187550824901788 1.7052509939971978 a26.46063773871401,26.46063773871401 0 0,0 -0.1455518768244723,0.4302982609579367 l -5.1575135265049505 -1.794050929429295" fill="#ff1402" stroke="none" /><path d="M 119.83427380445688 106.89939002012753 l 17.15194204562253 5.966335795403942 a39.16001868831396,39.16001868831396 0 0,0 -0.22630729567094227,0.6330217834358299 l -17.046994579907643 -6.259892535220693" fill="#ffc912" stroke="none" /><path d="M 118.8641267826498 109.22738970284198 l 14.661676332959628 7.171760600420947 a37.321731005080885,37.321731005080885 0 0,0 -0.2864533258327294,0.5730985391411625 l -14.536403093915165 -7.422390995725855" fill="#ffb110" stroke="none" /><path d="M 118.70294669586154 109.54985784667822 l 20.500537764633773 10.46772065473679 a44.018367108567425,44.018367108567425 0 0,0 -0.34940507685222305,0.6700303056504171 l -20.3178246188066 -10.818097203491709" fill="#f5ff19" stroke="none" /><line stroke="#e1ed5e" stroke-width="0.3" x1="174.33088141563837" x2="178.70328620479359" y1="141.23008692659167" y2="143.65538615756765" /><path d="M 175.20536237346943 141.71514677278685 a86.0,86.0 0 0,1 -30.301960400862466,31.631185727798858" fill="none" id="id41" stroke="none" /><text fill="#e1ed5e" style="font-size:6.75px; font-family:Arial;" text-anchor="middle"><textPath startOffset="22.145653131862474" xlink:href="#id41">May</textPath></text><path d="M 118.00360718960297 110.81064883170644 l 18.076005539903647 10.854121960888438 a42.084447818723355,42.084447818723355 0 0,0 -0.3772210132232668,0.6161621758404894 l -17.88701656222498 -11.162821252853485" fill="#fff016" stroke="none" /><path d="M 117.81537515405839 111.11811171558189 l 19.473185083977057 12.152707722943434 a43.95415522980786,43.95415522980786 0 0,0 -0.4049691150712946,0.6366787124742088 l -19.261698277279873 -12.485200110096317" fill="#f6ff19" stroke="none" /><path d="M 117.62189284568427 111.42229804090321 l 15.781577449551648 10.229427835189883 a39.80689715587222,39.80689715587222 0 0,0 -0.37660274415561157,0.5702245545416175 l -15.60365026647531 -10.498832268070561" fill="#ffd213" stroke="none" /><path d="M 117.21940702142032 112.02048342749411 l 8.067046265048559 5.631424811389704 a30.83820008176137,30.83820008176137 0 0,0 -0.306744494552004,0.4314745462528727 l -7.969186671966594 -5.769076584352081" fill="#ff5507" stroke="none" /><path d="M 116.79662413953412 112.60449989151573 l 16.06865037853159 12.058214809742324 a41.08984990947848,41.08984990947848 0 0,0 -0.42821106683322757,0.5605420322446103 l -15.859287334344058 -12.332277755227812" fill="#ffe315" stroke="none" /><path d="M 115.89218393027572 113.72728997021213 l 17.93932746475428 15.495563797882618 a44.70510424575133,44.70510424575133 0 0,0 -0.5066342950031847,0.5764568261388423 l -17.670682105792512 -15.801232901832753" fill="#edff1a" stroke="none" /><path d="M 115.41159269507618 114.26474011684316 l 9.10139147115926 8.424112069819913 a33.401652747766164,33.401652747766164 0 0,0 -0.3930963628656014,0.41745471502950393 l -8.9554392745574 -8.579108244793913" fill="#ff7a0b" stroke="none" /><path d="M 114.65682725009322 115.03919595460226 l 6.8306652721920145 7.008864318035744 a30.786836418851838,30.786836418851838 0 0,0 -0.38165050442814175,0.36561254995847814 l -6.709342281898561 -7.125088998299803" fill="#ff5407" stroke="none" /><path d="M 113.03279911837588 116.46651593811092 l 14.65264314492333 18.513135949524205 a44.61008584944227,44.61008584944227 0 0,0 -0.6045517524628519,0.4701030993137005 l -14.332681447825248 -18.7619401004587" fill="#eeff19" stroke="none" /><path d="M 112.7482090630111 116.68781488649013 l 20.404923471740037 26.71069983135078 a54.61283069555568,54.61283069555568 0 0,0 -0.7498784046755159,0.5627227347509526 l -19.943392078153757 -27.05704159336575" fill="#77ff27" stroke="none" /><path d="M 112.16784306229584 117.11559508785304 l 8.759653850153319 12.32155014174622 a36.117940781405125,36.117940781405125 0 0,0 -0.5084114567466121,0.3549106820326928 l -8.546847302232948 -12.470105639584036" fill="#ffa00e" stroke="none" /><path d="M 110.96478420261333 117.91015095944535 l 8.977475574438975 14.664031667364098 a38.19386205688255,38.19386205688255 0 0,0 -0.5621176982069622,0.33753552681998195 l -8.724425119674576 -14.815981194720003" fill="#ffbc11" stroke="none" /><line stroke="#e1ed5e" stroke-width="0.3" x1="143.1302829299769" x2="145.66735839644613" y1="173.24464959558577" y2="177.55315839532614" /><path d="M 143.63769802327073 174.10635135553383 a86.0,86.0 0 0,1 -40.68552437913181,11.842963189579606" fill="none" id="id42" stroke="none" /><text fill="#e1ed5e" style="font-size:6.75px; font-family:Arial;" text-anchor="middle"><textPath startOffset="21.407464694133747" xlink:href="#id42">June</textPath></text><path d="M 110.34350942703117 118.27599006163325 l 10.594472203347433 18.71941724059533 a42.50951935992525,42.50951935992525 0 0,0 -0.6381606208051169,0.35397693889564114 l -10.27156739438622 -18.898527094924116" fill="#fff517" stroke="none" /><path d="M 109.71004243097381 118.62028667847754 l 5.679104166814536 10.89043105781957 a33.28225194183263,33.28225194183263 0 0,0 -0.5088583380282248,0.2598266931564173 l -5.49131860707273 -10.986315702648826" fill="#ff780b" stroke="none" /><path d="M 109.3889696526874 118.78422872680471 l 7.323468394672796 14.651842586335748 a37.38016118670794,37.38016118670794 0 0,0 -0.5764372419641508,0.281964340683225 l -7.0708709034465755 -14.775400677116197" fill="#ffb110" stroke="none" /><path d="M 108.73861861582097 119.09545874513695 l 2.551549390073754 5.575595898660848 a27.13169421246277,27.13169421246277 0 0,0 -0.42517509157814537,0.19017541045406872 l -2.4554608956399817 -5.618575060024766" fill="#ff1e03" stroke="none" /><path d="M 108.07796709384702 119.3841803445677 l 24.233901281541076 58.152541033703095 a84.0,84.0 0 0,0 -1.3357821552382365,0.5432509736828255 l -23.232064665112397 -58.55997926396521" fill="#4dd2ff" stroke="none" /><path d="M 107.74402155503746 119.51999308798841 l 3.6773996563531157 9.269449389263285 a30.97225953396017,30.97225953396017 0 0,0 -0.49589203564603057,0.191821692362119 l -3.5177353582135558 -9.331210969763445" fill="#ff5708" stroke="none" /><path d="M 107.06938296918513 119.77432235084164 l 8.082469903477328 22.60810681200929 a45.009431758453545,45.009431758453545 0 0,0 -0.7297834151089008,0.25385655460325246 l -7.693180716323406 -22.74352179918113" fill="#e9ff1a" stroke="none" /><path d="M 105.69591212413111 120.21278271476187 l 4.11849281036687 14.615078054939868 a36.18428429597617,36.18428429597617 0 0,0 -0.5993127177146259,0.16334534623840102 l -3.866998691717549 -14.68362389532241" fill="#ffa10e" stroke="none" /><path d="M 105.3480935250658 120.30758222061773 l 3.7364133716382426 14.187770165037549 a35.671523681597854,35.671523681597854 0 0,0 -0.5934972169969132,0.1508646717077995 l -3.492310861415932 -14.249820068580618" fill="#ff9a0e" stroke="none" /><path d="M 101.44090949804482 120.95050786540614 l 0.9084209829087078 13.208241720492087 a34.23944402265958,34.23944402265958 0 0,0 -0.586726538638017,0.035296011593940975 l -0.6815500921382256 -13.22188970991072" fill="#ff860c" stroke="none" /><line stroke="#e1ed5e" stroke-width="0.3" x1="101.45913802915013" x2="101.54496967792366" y1="184.9874750549273" y2="189.98673829345242" /><path d="M 101.47630435890484 185.9873277026323 a86.0,86.0 0 0,1 -42.54439059252881,-10.42667462771756" fill="none" id="id43" stroke="none" /><text fill="#e1ed5e" style="font-size:6.75px; font-family:Arial;" text-anchor="middle"><textPath startOffset="22.145653131862474" xlink:href="#id43">July</textPath></text><path d="M 100.36049292484886 120.99690560180557 l 0.4049356031874085 23.58546880913417 a44.588944694270864,44.588944694270864 0 0,0 -0.7654285280362578,0.0065702833311290405 l -2.8888125615102754e-15 -23.588944694270864" fill="#eeff19" stroke="none" /><path d="M 99.63950707515114 120.99690560180557 l -0.25469738495983424 14.834845791413702 a35.83703206213865,35.83703206213865 0 0,0 -0.6150090104006972,-0.015840450520770637 l 0.5093197094312754 -14.828287623542883" fill="#ff9c0e" stroke="none" /><path d="M 99.27912038922189 120.98762331915562 l -0.621344003601661 18.089752719087155 a39.100420487064184,39.100420487064184 0 0,0 -0.670617343291225,-0.028799194209761673 l 0.9317871074937246 -18.076420956451564" fill="#ffc912" stroke="none" /><path d="M 97.84075906011543 120.88869738790638 l -1.502319672855922 14.53358004033745 a35.61102026514045,35.61102026514045 0 0,0 -0.6075309556364862,-0.0680751107673768 l 1.7515865300932074 -14.505649169063101" fill="#ff990e" stroke="none" /><path d="M 95.35216902796893 120.47920084513623 l -3.7660520642504687 16.593920278327538 a38.01591426735969,38.01591426735969 0 0,0 -0.6351696172665506,-0.14989830019770395 l 4.0503538352569075 -16.526825834483606" fill="#ffba11" stroke="none" /><path d="M 90.28995756902619 118.62028667847754 l -4.335309558855414 8.313527711097345 a30.376014717047248,30.376014717047248 0 0,0 -0.4602851245141157,-0.24507590314102617 l 4.477383499156092 -8.237881340233745" fill="#ff4e07" stroke="none" /><line stroke="#e1ed5e" stroke-width="0.3" x1="58.13341422392154" x2="55.670673884152215" y1="173.97424548756322" y2="178.32567169271397" /><path d="M 57.64086615596767 174.84453072859336 a86.0,86.0 0 0,1 -31.369924170532244,-30.572349798747897" fill="none" id="id44" stroke="none" /><text fill="#e1ed5e" style="font-size:6.75px; font-family:Arial;" text-anchor="middle"><textPath startOffset="22.145653131862474" xlink:href="#id44">August</textPath></text><path d="M 86.96720088162412 116.46651593811092 l -31.46170761439763 39.750839797891736 a71.69485487356187,71.69485487356187 0 0,0 -0.958489298821133,-0.772091131232849 l 32.139447683574026 -39.204900372865474" fill="#3dffac" stroke="none" /><line stroke="#e1ed5e" stroke-width="0.3" x1="26.387840678322732" x2="22.057713659400548" y1="142.50000000000003" y2="145.00000000000006" /><path d="M 25.521815274538298 143.00000000000003 a86.0,86.0 0 0,1 -11.493303480769221,-40.785679425670985" fill="none" id="id45" stroke="none" /><text fill="#e1ed5e" style="font-size:6.75px; font-family:Arial;" text-anchor="middle"><textPath startOffset="21.40746469413373" xlink:href="#id45">September</textPath></text><path d="M 80.68587082218212 108.24405325689762 l -8.828279542859125 3.7682675748953027 a30.598872861064066,30.598872861064066 0 0,0 -0.20206061200683392,-0.4848719112334081 l 8.891665999402445 -3.6161631542206134" fill="#ff5207" stroke="none" /><path d="M 79.83685265289637 105.86919833188381 l -28.131724021611475 8.188734866552231 a50.29930502832448,50.29930502832448 0 0,0 -0.2342067568224037,-0.8311171560959429 l 28.268149270508452 -7.704609786553293" fill="#a8ff21" stroke="none" /><path d="M 79.64726062577567 105.17358676015961 l -8.853945093237101 2.2506382196179096 a30.13551947672721,30.13551947672721 0 0,0 -0.12314302219116065,-0.5024655531992954 l 8.891275641944555 -2.0983168418105143" fill="#ff4b07" stroke="none" /><path d="M 79.56144815229197 104.8234425847677 l -10.619341408540704 2.506135657448072 a31.911055305729136,31.911055305729136 0 0,0 -0.121245505220466,-0.5342300672984397 l 10.660797775318835 -2.323471256210606" fill="#ff6509" stroke="none" /><path d="M 79.48165901384964 104.47187691870673 l -18.741731561890067 4.084673163623942 a40.1816854523156,40.1816854523156 0 0,0 -0.14109949848519002,-0.6752121788450752 l 18.809088771199622 -3.7623445334934584" fill="#ffd714" stroke="none" /><path d="M 79.34024301695615 103.76489593502545 l -12.458146646702787 2.270289321729084 a33.66331834374817,33.66331834374817 0 0,0 -0.09872198114365464,-0.5694021528910175 l 12.495283445338675 -2.056094135917474" fill="#ff7e0b" stroke="none" /><path d="M 79.2786578344484 103.40968896794605 l -13.327662692717754 2.193061824316249 a34.506891315774105,34.506891315774105 0 0,0 -0.0911614686260058,-0.5853220234040836 l 13.363345653482027 -1.9639516189807156" fill="#ff8a0c" stroke="none" /><path d="M 79.0935383218832 101.97986365728391 l -16.09085847056099 1.5238210267646002 a37.16285113589908,37.16285113589908 0 0,0 -0.05469376661113281,-0.6356244736917344 l 16.114645859869864 -1.2473755056972038" fill="#ffae10" stroke="none" /><path d="M 79.06263194458094 101.62068470465958 l -19.25452614450088 1.4904220977184275 a40.31212404368394,40.31212404368394 0 0,0 -0.047483917422059006,-0.6904057380293682 l 19.277274023088005 -1.1596729355347162" fill="#ffd914" stroke="none" /><path d="M 79.00696218219943 100.54070618675478 l -24.13140014564613 0.6215392677824855 a45.139403141972785,45.139403141972785 0 0,0 -0.013302299235213722,-0.7747922416114447 l 24.13851387648001 -0.20720011020198847" fill="#e7ff1a" stroke="none" /><line stroke="#e1ed5e" stroke-width="0.3" x1="15.003131293944662" x2="10.003315487706104" y1="100.72959589197737" y2="100.7725132973878" /><path d="M 14.003168132696942 100.73817937305945 a86.0,86.0 0 0,1 10.791469493833615,-42.45332614584628" fill="none" id="id46" stroke="none" /><text fill="#e1ed5e" style="font-size:6.75px; font-family:Arial;" text-anchor="middle"><textPath startOffset="22.145653131862435" xlink:href="#id46">October</textPath></text><path d="M 79.0935383218832 98.0201363427161 l -19.8099542959034 -1.8760232681538693 a40.8985866962565,40.8985866962565 0 0,0 0.072191083795785,-0.6983832492522766 l 19.77483081962595 2.2158110396890587" fill="#ffe115" stroke="none" /><path d="M 79.13060592940154 97.66154086499901 l -19.186037681890785 -2.1498355405008733 a40.306108742626876,40.306108742626876 0 0,0 0.08294980623082271,-0.6869433894094155 l 19.146305789400294 2.478872606833725" fill="#ffd914" stroke="none" /><path d="M 79.64726062577567 94.8264132398404 l -9.373768217280437 -2.3827752249972076 a30.671874087484667,30.671874087484667 0 0,0 0.1340952706982881,-0.5091815844914459 l 9.331483465777424 2.543337313861438" fill="#ff5307" stroke="none" /><line stroke="#e1ed5e" stroke-width="0.3" x1="26.387840678322718" x2="22.05771365940052" y1="57.49999999999999" y2="54.99999999999999" /><path d="M 25.521815274538284 56.99999999999999 a86.0,86.0 0 0,1 29.574782752854787,-30.34633250058573" fill="none" id="id47" stroke="none" /><text fill="#e1ed5e" style="font-size:6.75px; font-family:Arial;" text-anchor="middle"><textPath startOffset="21.40746469413373" xlink:href="#id47">November</textPath></text><path d="M 81.99639281039701 89.18935116829357 l -3.5692236494184173 -2.1432162493506977 a25.163259942767038,25.163259942767038 0 0,0 0.2255491257126215,-0.36841754617671324 l 3.5319065592504004 2.2041709116519517" fill="#ff0000" stroke="none" /><path d="M 82.37810715431573 88.57770195909679 l -11.035644052103486 -7.1531711457045875 a34.151170939671786,34.151170939671786 0 0,0 0.32309538323587933,-0.4892075903302662 l 10.91122422994688 7.341558614373914" fill="#ff850c" stroke="none" /><path d="M 83.64595745247003 86.82634096563983 l -11.828429449147146 -9.528145473645225 a36.18872277054254,36.18872277054254 0 0,0 0.39385941413804376,-0.48044444460347885 l 11.663123215770472 9.729792199947196" fill="#ffa10e" stroke="none" /><path d="M 84.10781606972428 86.27271002978789 l -15.881046500668566 -13.717669723780855 a41.98528295275361,41.98528295275361 0 0,0 0.4758110866344416,-0.5413856731535379 l 15.643224350075531 13.98826767474569" fill="#ffef16" stroke="none" /><path d="M 84.58840730492382 85.73525988315684 l -6.6739294352249185 -6.177289449263034 a30.0939671786486,30.0939671786486 0 0,0 0.354168972758815,-0.37611517572313863 l 6.566904628729832 6.290946084930684" fill="#ff4a06" stroke="none" /><path d="M 86.68645165197937 83.75963576809568 l -5.794018416353316 -7.06776037373455 a30.13914033755767,30.13914033755767 0 0,0 0.40293049675830767,-0.3245722862351839 l 5.671837149239763 7.166180953763132" fill="#ff4b07" stroke="none" /><path d="M 87.25179093698888 83.31218511350988 l -10.043199083955699 -13.146869991919708 a37.54406354026747,37.54406354026747 0 0,0 0.5155104050467106,-0.38684861853834446 l 9.816035689998236 13.317337637722053" fill="#ffb410" stroke="none" /><line stroke="#e1ed5e" stroke-width="0.3" x1="56.869717070023135" x2="54.33264160355391" y1="26.7553504044142" y2="22.446841604673864" /><path d="M 56.362301976729285 25.89364864446614 a86.0,86.0 0 0,1 42.16139366436587,-11.88097634709845" fill="none" id="id48" stroke="none" /><text fill="#e1ed5e" style="font-size:6.75px; font-family:Arial;" text-anchor="middle"><textPath startOffset="22.145653131862474" xlink:href="#id48">December</textPath></text></svg>