<?xml version="1.0" encoding="utf-8" ?>
<svg baseProfile="full" height="200mm" version="1.1" viewBox="0,0,200,200" width="200mm" xmlns="http://www.w3.org/2000/svg" xmlns:ev="http://www.w3.org/2001/xml-events" xmlns:xlink="http://www.w3.org/1999/xlink"><defs /><rect fill="#1a1a1a" height="200" width="200" x="0" y="0" /><text alignment-baseline="middle" fill="#e1ed5e" style="dominant-baseline: central; font-size:9.0px; font-family:Arial;" text-anchor="middle" x="100.0" y="100.0">2025</text><line stroke="#e1ed5e" stroke-width="0.3" x1="100.0" x2="100.0" y1="15.0" y2="10.0" /><path d="M 100.0 14.0 a86.0,86.0 0 0,1 42.46469731375804,11.215312516191453" fill="none" id="id49" stroke="none" /><text fill="#e1ed5e" style="font-size:6.75px; font-family:Arial;" text-anchor="middle"><textPath startOffset="22.20632615414155" xlink:href="#id49">January</textPath></text><path d="M 100.0 79.0 l 0.0 -38.65476090147757 a59.65476090147757,59.65476090147757 0 0,0 1.0268586457882953,0.008838496555144262 l -0.6653781665157669 38.64903378153099" fill="red" stroke="none" /><line stroke="#e1ed5e" stroke-width="0.3" x1="143.23703022742887" x2="145.7803849466894" y1="26.81831364943548" y2="22.513508569990506" /><path d="M 143.74570117128098 25.957352633546492 a86.0,86.0 0 0,1 28.547481713284135,27.462654790039103" fill="none" id="id50" stroke="none" /><text fill="#e1ed5e" style="font-size:6.75px; font-family:Arial;" text-anchor="middle"><textPath startOffset="19.985693538727396" xlink:href="#id50">February</textPath></text><path d="M 116.82858285166822 87.43820079747576 l 6.191078994358146 -4.621369004127603 a28.725704536590435,28.725704536590435 0 0,0 0.29236938292172904,0.3987915097339173 l -6.269710989793501 4.514115050722191" fill="red" stroke="none" /><path d="M 117.04232023915458 87.72973835380427 l 28.067977861171542 -20.208599967799277 a55.58610839446602,55.58610839446602 0 0,0 0.5523866350542146,0.7813117213205154 l -28.411677116029637 19.72246174614697" fill="red" stroke="none" /><path d="M 117.65298651832404 88.62581576622439 l 12.34760028649605 -7.955814182367608 a35.68871036338585,35.68871036338585 0 0,0 0.3282892365608151,0.5192747334085207 l -12.482717119302821 7.742091801244881" fill="red" stroke="none" /><line stroke="#e1ed5e" stroke-width="0.3" x1="172.23445277983987" x2="176.4835382374775" y1="55.19839476539836" y2="52.563006222186495" /><path d="M 173.08426987136738 54.67131705675599 a86.0,86.0 0 0,1 12.851231095245387,41.99856678651699" fill="none" id="id51" stroke="none" /><text fill="#e1ed5e" style="font-size:6.75px; font-family:Arial;" text-anchor="middle"><textPath startOffset="22.20632615414155" xlink:href="#id51">March</textPath></text><path d="M 117.84615892207809 88.93136811851018 l 21.88924540159852 -13.576254732000063 a46.75759609900652,46.75759609900652 0 0,0 0.41833398176747666,0.6876310725114316 l -22.11969518165222 13.19745588628155" fill="red" stroke="none" /><path d="M 120.73433829027371 96.67025291283417 l 22.9021969921548 -3.6778855759336024 a44.195634705200995,44.195634705200995 0 0,0 0.11415965326031899,0.752169479620673 l -22.96211253885442 3.283116983920847" fill="red" stroke="none" /><path d="M 120.87857604477298 97.74499172005257 l 8.493643822451086 -0.9173631911236878 a29.54304047790306,29.54304047790306 0 0,0 0.050255348664617235,0.5060645027281464 l -8.50817629679793 0.7710231576911064" fill="red" stroke="none" /><line stroke="#e1ed5e" stroke-width="0.3" x1="184.98032266829074" x2="189.97916517819016" y1="98.17113171792111" y2="98.06355123074" /><path d="M 185.9800911702706 98.14961562048488 a86.0,86.0 0 0,1 -9.607161424134198,41.387399972396054" fill="none" id="id52" stroke="none" /><text fill="#e1ed5e" style="font-size:6.75px; font-family:Arial;" text-anchor="middle"><textPath startOffset="21.466115282336823" xlink:href="#id52">April</textPath></text><path d="M 120.89721153311464 102.0752229133903 l 14.931052705148035 1.4827462815151584 a36.004495040462224,36.004495040462224 0 0,0 -0.06655293490893026,0.61619752124871 l -14.903317468738052 -1.7395401246486597" fill="red" stroke="none" /><path d="M 120.02730092923936 106.31721596034902 l 24.178412000391923 7.626601843375368 a46.3527249529133,46.3527249529133 0 0,0 -0.24656945541680875,0.7588627537065853 l -24.043550293958866 -8.041663497059748" fill="red" stroke="none" /><path d="M 119.9155931802556 106.66101706037122 l 10.558899496814675 3.531554850033596 a32.13383304359415,32.13383304359415 0 0,0 -0.17996349537457434,0.5230581566034052 l -10.496545170496871 -3.712785709726301" fill="red" stroke="none" /><path d="M 119.41010516605496 108.01547362559984 l 41.80760647890897 17.26460337099045 a66.2320957844419,66.2320957844419 0 0,0 -0.44422503356265014,1.0500167573885435 l -41.50423046415401 -17.98169465404516" fill="red" stroke="none" /><path d="M 119.26925614724726 108.34839909993367 l 54.664323958154775 23.683300976614795 a80.57421471535329,80.57421471535329 0 0,0 -0.5623271193957947,1.267899204213517 l -54.248555754027706 -24.620748517321" fill="red" stroke="none" /><path d="M 119.12269723197855 108.67885076344098 l 23.370265765699333 10.606612990936986 a46.66455846296467,46.66455846296467 0 0,0 -0.33826334723928037,0.7285891566333301 l -23.18422780162022 -11.007322214849147" fill="red" stroke="none" /><path d="M 118.97047184881838 109.00673069616215 l 18.725379252303064 8.890366536639467 a41.72868653094983,41.72868653094983 0 0,0 -0.3136541559359936,0.6462204625203782 l -18.569571839752356 -9.21137595512512" fill="red" stroke="none" /><path d="M 118.81262510543309 109.33194174019688 l 56.43787531629926 27.995825220590632 a84.0,84.0 0 0,0 -0.6536853208549238,1.2897831531892228 l -55.94761132565807 -28.96316258548255" fill="red" stroke="none" /><line stroke="#e1ed5e" stroke-width="0.3" x1="174.80103733775053" x2="179.2010983576182" y1="140.37084112569926" y2="142.7455964860345" /><path d="M 175.68104954172406 140.8457921977663 a86.0,86.0 0 0,1 -30.038265399797805,32.042727171017184" fill="none" id="id53" stroke="none" /><text fill="#e1ed5e" style="font-size:6.75px; font-family:Arial;" text-anchor="middle"><textPath startOffset="22.206326154141568" xlink:href="#id53">May</textPath></text><line stroke="#e1ed5e" stroke-width="0.3" x1="143.8653032363475" x2="146.44561519142675" y1="172.8068346515853" y2="177.08958963109032" /><path d="M 144.38136562736335 173.6633856474863 a86.0,86.0 0 0,1 -40.68145358897372,12.25698825130547" fill="none" id="id54" stroke="none" /><text fill="#e1ed5e" style="font-size:6.75px; font-family:Arial;" text-anchor="middle"><textPath startOffset="21.466115282336833" xlink:href="#id54">June</textPath></text><line stroke="#e1ed5e" stroke-width="0.3" x1="102.19456741930631" x2="102.32365962044197" y1="184.97166512339345" y2="189.96999836594603" /><path d="M 102.22038585953345 185.97133177190398 a86.0,86.0 0 0,1 -42.740103519485714,-10.115201625700543" fill="none" id="id55" stroke="none" /><text fill="#e1ed5e" style="font-size:6.75px; font-family:Arial;" text-anchor="middle"><textPath startOffset="22.20632615414155" xlink:href="#id55">July</textPath></text><line stroke="#e1ed5e" stroke-width="0.3" x1="58.666819895761336" x2="56.23545636021788" y1="174.27360380694188" y2="178.64263932499728" /><path d="M 58.180547188652646 175.14741091055294 a86.0,86.0 0 0,1 -31.652253787137756,-30.449443065178592" fill="none" id="id56" stroke="none" /><text fill="#e1ed5e" style="font-size:6.75px; font-family:Arial;" text-anchor="middle"><textPath startOffset="22.20632615414155" xlink:href="#id56">August</textPath></text><line stroke="#e1ed5e" stroke-width="0.3" x1="26.63291911575756" x2="22.317208475507996" y1="142.92168965132927" y2="145.44649492493687" /><path d="M 25.769776987707644 143.4266507060508 a86.0,86.0 0 0,1 -11.730757126820373,-40.83630448921669" fill="none" id="id57" stroke="none" /><text fill="#e1ed5e" style="font-size:6.75px; font-family:Arial;" text-anchor="middle"><textPath startOffset="21.46611528233685" xlink:href="#id57">September</textPath></text><line stroke="#e1ed5e" stroke-width="0.3" x1="15.007084014347285" x2="10.007500721073583" y1="101.09737516637583" y2="101.16192664675087" /><path d="M 14.007167355692545 101.11028546245083 a86.0,86.0 0 0,1 10.666146001902534,-42.60595125391555" fill="none" id="id58" stroke="none" /><text fill="#e1ed5e" style="font-size:6.75px; font-family:Arial;" text-anchor="middle"><textPath startOffset="22.20632615414155" xlink:href="#id58">October</textPath></text><line stroke="#e1ed5e" stroke-width="0.3" x1="26.266209847984243" x2="21.928928074336255" y1="57.711370442889674" y2="55.22380399835377" /><path d="M 25.398753493254645 57.213857153982495 a86.0,86.0 0 0,1 29.58750427330803,-30.492523968695096" fill="none" id="id59" stroke="none" /><text fill="#e1ed5e" style="font-size:6.75px; font-family:Arial;" text-anchor="middle"><textPath startOffset="21.46611528233685" xlink:href="#id59">November</textPath></text><line stroke="#e1ed5e" stroke-width="0.3" x1="56.762969772571076" x2="54.21961505331055" y1="26.818313649435495" y2="22.513508569990535" /><path d="M 56.25429882871897 25.957352633546506 a86.0,86.0 0 0,1 42.265352541879196,-11.944610805530505" fill="none" id="id60" stroke="none" /><text fill="#e1ed5e" style="font-size:6.75px; font-family:Arial;" text-anchor="middle"><textPath startOffset="22.20632615414155" xlink:href="#id60">December</textPath></text></svg>