<?xml version="1.0" encoding="utf-8" ?>
<svg baseProfile="full" height="200mm" version="1.1" viewBox="0,0,200,200" width="200mm" xmlns="http://www.w3.org/2000/svg" xmlns:ev="http://www.w3.org/2001/xml-events" xmlns:xlink="http://www.w3.org/1999/xlink"><defs /><rect fill="#1a1a1a" height="200" width="200" x="0" y="0" /><text alignment-baseline="middle" fill="#e1ed5e" style="dominant-baseline: central; font-size:9.0px; font-family:Arial;" text-anchor="middle" x="100.0" y="100.0">2021</text><line stroke="#e1ed5e" stroke-width="0.3" x1="100.0" x2="100.0" y1="15.0" y2="10.0" /><path d="M 100.0 14.0 a86.0,86.0 0 0,1 42.46469731375804,11.215312516191453" fill="none" id="id1" stroke="none" /><text fill="#e1ed5e" style="font-size:6.75px; font-family:Arial;" text-anchor="middle"><textPath startOffset="22.20632615414155" xlink:href="#id1">January</textPath></text><line stroke="#e1ed5e" stroke-width="0.3" x1="143.23703022742887" x2="145.7803849466894" y1="26.81831364943548" y2="22.513508569990506" /><path d="M 143.74570117128098 25.957352633546492 a86.0,86.0 0 0,1 28.547481713284135,27.462654790039103" fill="none" id="id2" stroke="none" /><text fill="#e1ed5e" style="font-size:6.75px; font-family:Arial;" text-anchor="middle"><textPath startOffset="19.985693538727396" xlink:href="#id2">February</textPath></text><line stroke="#e1ed5e" stroke-width="0.3" x1="172.23445277983987" x2="176.4835382374775" y1="55.19839476539836" y2="52.563006222186495" /><path d="M 173.08426987136738 54.67131705675599 a86.0,86.0 0 0,1 12.851231095245387,41.99856678651699" fill="none" id="id3" stroke="none" /><text fill="#e1ed5e" style="font-size:6.75px; font-family:Arial;" text-anchor="middle"><textPath startOffset="22.20632615414155" xlink:href="#id3">March</textPath></text><line stroke="#e1ed5e" stroke-width="0.3" x1="184.98032266829074" x2="189.97916517819016" y1="98.17113171792111" y2="98.06355123074" /><path d="M 185.9800911702706 98.14961562048488 a86.0,86.0 0 0,1 -9.607161424134198,41.387399972396054" fill="none" id="id4" stroke="none" /><text fill="#e1ed5e" style="font-size:6.75px; font-family:Arial;" text-anchor="middle"><textPath startOffset="21.466115282336823" xlink:href="#id4">April</textPath></text><line stroke="#e1ed5e" stroke-width="0.3" x1="174.80103733775053" x2="179.2010983576182" y1="140.37084112569926" y2="142.7455964860345" /><path d="M 175.68104954172406 140.8457921977663 a86.0,86.0 0 0,1 -30.038265399797805,32.042727171017184" fill="none" id="id5" stroke="none" /><text fill="#e1ed5e" style="font-size:6.75px; font-family:Arial;" text-anchor="middle"><textPath startOffset="22.206326154141568" xlink:href="#id5">May</textPath></text><line stroke="#e1ed5e" stroke-width="0.3" x1="143.8653032363475" x2="146.44561519142675" y1="172.8068346515853" y2="177.08958963109032" /><path d="M 144.38136562736335 173.6633856474863 a86.0,86.0 0 0,1 -40.68145358897372,12.25698825130547" fill="none" id="id6" stroke="none" /><text fill="#e1ed5e" style="font-size:6.75px; font-family:Arial;" text-anchor="middle"><textPath startOffset="21.466115282336833" xlink:href="#id6">June</textPath></text><line stroke="#e1ed5e" stroke-width="0.3" x1="102.19456741930631" x2="102.32365962044197" y1="184.97166512339345" y2="189.96999836594603" /><path d="M 102.22038585953345 185.97133177190398 a86.0,86.0 0 0,1 -42.740103519485714,-10.115201625700543" fill="none" id="id7" stroke="none" /><text fill="#e1ed5e" style="font-size:6.75px; font-family:Arial;" text-anchor="middle"><textPath startOffset="22.20632615414155" xlink:href="#id7">July</textPath></text><line stroke="#e1ed5e" stroke-width="0.3" x1="58.666819895761336" x2="56.23545636021788" y1="174.27360380694188" y2="178.64263932499728" /><path d="M 58.180547188652646 175.14741091055294 a86.0,86.0 0 0,1 -31.652253787137756,-30.449443065178592" fill="none" id="id8" stroke="none" /><text fill="#e1ed5e" style="font-size:6.75px; font-family:Arial;" text-anchor="middle"><textPath startOffset="22.20632615414155" xlink:href="#id8">August</textPath></text><path d="M 87.95078237400918 117.19931262002967 l -28.158920738274723 40.19464963231571 a70.07682422701224,70.07682422701224 0 0,0 -0.981985443864131,-0.7006205408664405 l 28.84663350998774 -39.70398482960505" fill="red" stroke="none" /><path d="M 85.97065885151581 115.62618273729859 l -21.49818762216975 23.945145017808002 a53.17983904499629,53.17983904499629 0 0,0 -0.675891571447127,-0.6174109252824634 l 21.90717874308373 -23.571541325938963" fill="red" stroke="none" /><path d="M 83.50135304334701 112.99209946851258 l -29.687587606320985 23.37792257600679 a58.787301066002996,58.787301066002996 0 0,0 -0.6192071538070877,-0.8004087162599856 l 30.08560157734614 -22.86343586563355" fill="red" stroke="none" /><line stroke="#e1ed5e" stroke-width="0.3" x1="26.63291911575756" x2="22.317208475507996" y1="142.92168965132927" y2="145.44649492493687" /><path d="M 25.769776987707644 143.4266507060508 a86.0,86.0 0 0,1 -11.730757126820373,-40.83630448921669" fill="none" id="id9" stroke="none" /><text fill="#e1ed5e" style="font-size:6.75px; font-family:Arial;" text-anchor="middle"><textPath startOffset="21.46611528233685" xlink:href="#id9">September</textPath></text><path d="M 81.18737489456691 109.33194174019688 l -33.22438240518611 16.480847261963312 a58.087436048858976,58.087436048858976 0 0,0 -0.43661488628157935,-0.8995559867975801 l 33.50315054808242 -15.906502319200449" fill="red" stroke="none" /><path d="M 80.58989483394504 108.01547362559985 l -19.476629401583125 8.04294505096192 a42.07197328062574,42.07197328062574 0 0,0 -0.2706577906307414,-0.6717504398616387 l 19.612189806471257 -7.706495243257476" fill="red" stroke="none" /><path d="M 80.32549172779594 107.34259656027581 l -41.36843177577988 15.438846077285866 a65.15546529916178,65.15546529916178 0 0,0 -0.3831009155886885,-1.0541291844038907 l 41.6280569523738 -14.724469095875858" fill="red" stroke="none" /><path d="M 80.0844068197444 106.66101706037122 l -37.237912030541075 12.454681368664787 a60.265521521931696,60.265521521931696 0 0,0 -0.32057741669270334,-0.9866358377453086 l 37.44678169825003 -11.811846630941675" fill="red" stroke="none" /><path d="M 79.97269907076064 106.31721596034903 l -13.604026926049356 4.291121221271874 a35.2647562173465,35.2647562173465 0 0,0 -0.17762224199491644,-0.5804797639935314 l 13.675875940550402 -4.056314484726295" fill="red" stroke="none" /><path d="M 79.86692584326677 105.97154293290107 l -50.16110530827529 14.87796605616541 a73.32103171494512,73.32103171494512 0 0,0 -0.34847518267900035,-1.2130878265546723 l 50.409773127840396 -14.012320754106142" fill="red" stroke="none" /><path d="M 79.76711848015287 105.62410040840567 l -50.18509812666113 13.949868217889225 a73.08783828571774,73.08783828571774 0 0,0 -0.3265005097906883,-1.215029858102097 l 50.41778671279359 -13.083947426611589" fill="red" stroke="none" /><path d="M 79.67330655649465 105.27499134158121 l -32.57863189381334 8.454498595064702 a54.657774771463174,54.657774771463174 0 0,0 -0.2284921052734981,-0.9127123796590342 l 32.7193353133819 -7.892458376008277" fill="red" stroke="none" /><path d="M 79.50377843672027 104.57218783832718 l -20.25392454886089 4.518137512067358 a41.751747545903214,41.751747545903214 0 0,0 -0.1504374339521542,-0.7027936082238992 l 20.328696021537485 -4.168830084427295" fill="red" stroke="none" /><path d="M 79.29508885075956 103.50808413554451 l -17.705077738639613 2.999814965918481 a38.95741260763979,38.95741260763979 0 0,0 -0.1063319307282498,-0.6621290341465763 l 17.75409142372915 -2.694606702078691" fill="red" stroke="none" /><path d="M 79.1416061653843 102.43462659150553 l -41.26256420800677 4.816235461418911 a62.54269284771644,62.54269284771644 0 0,0 -0.11560778067976074,-1.0703844689856963 l 41.339354290187586 -4.105254670548432" fill="red" stroke="none" /><path d="M 79.10278846688536 102.07522291339032 l -26.30810678136039 2.612558422643339 a47.43751016890935,47.43751016890935 0 0,0 -0.07369847242242912,-0.8132565019868578 l 26.349179850059894 -2.1593205321079147" fill="red" stroke="none" /><path d="M 79.04373962182676 101.35467743843564 l -36.98726854808469 2.390971352104295 a58.06446787227247,58.06446787227247 0 0,0 -0.055890227593919456,-0.9979575586207348 l 37.02294512656614 -1.7539420771481227" fill="red" stroke="none" /><line stroke="#e1ed5e" stroke-width="0.3" x1="15.007084014347285" x2="10.007500721073583" y1="101.09737516637583" y2="101.16192664675087" /><path d="M 14.007167355692545 101.11028546245083 a86.0,86.0 0 0,1 10.666146001902534,-42.60595125391555" fill="none" id="id10" stroke="none" /><text fill="#e1ed5e" style="font-size:6.75px; font-family:Arial;" text-anchor="middle"><textPath startOffset="22.20632615414155" xlink:href="#id10">October</textPath></text><path d="M 79.00175016825051 100.2711162175752 l -39.49343013499439 0.5099143730103043 a60.49672184492639,60.49672184492639 0 0,0 -0.0044816625785873455,-1.0413805498423596 l 39.496356094862485 0.16997565503573064" fill="red" stroke="none" /><path d="M 79.00486145842228 99.54816195383935 l -36.45885317436717 -0.7846338785019557 a57.46729528102346,57.46729528102346 0 0,0 0.02979626046797381,-0.9887928253226915 l 36.43994521944355 1.4120968512496415" fill="red" stroke="none" /><path d="M 79.01574976396665 99.18683210126434 l -41.22265779967923 -1.5974333915301482 a62.25359753415247,62.25359753415247 0 0,0 0.05071116325206214,-1.0704325067782707 l 41.189053028193676 2.306777004931428" fill="red" stroke="none" /><path d="M 79.05617556472873 98.46500227214037 l -22.48693702793009 -1.6480942795846285 a43.54725153211568,43.54725153211568 0 0,0 0.06122643236799581,-0.7471175557558823 l 22.455236111742597 2.0349257525482893" fill="red" stroke="none" /><path d="M 79.08570108090925 98.10471618934814 l -26.725289744844982 -2.421884146551483 a47.83480267796344,47.83480267796344 0 0,0 0.08137126876572758,-0.8193975717708902 l 26.679641350397027 2.881557249026803" fill="red" stroke="none" /><path d="M 79.12142395522702 97.74499172005258 l -27.569654709726965 -2.9776838953195846 a48.72999210591333,48.72999210591333 0 0,0 0.09725032225222507,-0.8331813712861066 l 27.514314034471152 3.4518090049305528" fill="red" stroke="none" /><path d="M 79.26566170972629 96.67025291283419 l -33.991310463766595 -5.458696844874399 a55.42682904782853,55.42682904782853 0 0,0 0.15938681085881876,-0.9407099800588177 l 33.89231179138755 6.042992613249044" fill="red" stroke="none" /><path d="M 79.32604984820605 96.31383870115002 l -30.968785486455186 -5.521728440592787 a52.45719567090698,52.45719567090698 0 0,0 0.16615011408424374,-0.8875805531766037 l 30.869149648461082 6.053987071231964" fill="red" stroke="none" /><path d="M 79.46518482838121 95.60439243477599 l -32.85651479264327 -7.033145600893765 a54.60082887909995,54.60082887909995 0 0,0 0.20463770033935288,-0.9173506852006426 l 32.73058270530188 7.597674455644366" fill="red" stroke="none" /><path d="M 79.81627453868168 94.20196356495316 l -24.03965297051589 -6.905701530475998 a46.01186975359603,46.01186975359603 0 0,0 0.2252261368349471,-0.7593505674972447 l 23.917220936569237 7.318481484719782" fill="red" stroke="none" /><path d="M 79.91906864156998 93.8553929516997 l -48.23349633864409 -14.759070497105215 a71.44105798839388,71.44105798839388 0 0,0 0.36994396619217085,-1.1728234691342696 l 47.972296888683715 15.587144132665898" fill="red" stroke="none" /><path d="M 80.14247586403 93.16781622104843 l -52.26237048664311 -17.981401782189415 a76.26921547240985,76.26921547240985 0 0,0 0.43781042639294354,-1.2377490315989295 l 51.945106979440354 18.878348440214957" fill="red" stroke="none" /><path d="M 80.38941819471856 92.48833698450439 l -9.276315586389801 -3.5532121077399013 a30.93354655402026,30.93354655402026 0 0,0 0.1947435418798317,-0.4956010723906355 l 9.21377849462828 3.7123621850263" fill="red" stroke="none" /><path d="M 80.803312248108 91.48605970444005 l -10.507209818052079 -4.660062101338278 a32.494243644055025,32.494243644055025 0 0,0 0.2311697482119123,-0.5093518974736352 l 10.425437752876816 4.840236007653984" fill="red" stroke="none" /><path d="M 80.95270993114464 91.15688171328213 l -22.98448029082017 -10.671044397166197 a46.340827191814256,46.340827191814256 0 0,0 0.34213169269934074,-0.7206165992846859 l 22.797390404279074 11.065103412091416" fill="red" stroke="none" /><path d="M 81.10775173730289 90.83032412892265 l -29.468256278329225 -14.302922278004315 a53.75594165607092,53.75594165607092 0 0,0 0.4112073224432538,-0.8289688698346582 l 29.217688942932558 14.808050736337934" fill="red" stroke="none" /><path d="M 81.26839172434947 90.50648371742162 l -23.25625671658276 -11.78668956566324 a47.072581908681684,47.072581908681684 0 0,0 0.3725247176200367,-0.7195991822057839 l 23.04992256580261 12.185261470129358" fill="red" stroke="none" /><line stroke="#e1ed5e" stroke-width="0.3" x1="26.266209847984243" x2="21.928928074336255" y1="57.711370442889674" y2="55.22380399835377" /><path d="M 25.398753493254645 57.213857153982495 a86.0,86.0 0 0,1 29.58750427330803,-30.492523968695096" fill="none" id="id11" stroke="none" /><text fill="#e1ed5e" style="font-size:6.75px; font-family:Arial;" text-anchor="middle"><textPath startOffset="21.46611528233685" xlink:href="#id11">November</textPath></text><path d="M 81.78341655067845 89.55222093294921 l -54.64975034796462 -31.34333720115236 a84.0,84.0 0 0,0 0.7301613021187001,-1.2480823505844327 l 54.1021293713756 32.27939896409068" fill="red" stroke="none" /><path d="M 82.15384107792192 88.93136811851018 l -40.097882319208935 -24.869704486916095 a68.18413258449988,68.18413258449988 0 0,0 0.6272044185348488,-0.9920867666552259 l 39.663850304428124 25.556238901285536" fill="red" stroke="none" /><path d="M 82.34701348167596 88.62581576622439 l -29.698881056150697 -19.13560316374822 a56.329801081068055,56.329801081068055 0 0,0 0.5321915268620458,-0.8105642069728596 l 29.36509289393073 19.643985434698745" fill="red" stroke="none" /><path d="M 82.54541684631803 88.32363383020206 l -51.464525039835415 -34.427556008009965 a82.91812295491934,82.91812295491934 0 0,0 0.8038143422044186,-1.1794983617047723 l 50.864286231962254 35.30833239298515" fill="red" stroke="none" /><path d="M 85.05521093208273 85.24692304244772 l -31.591171518322714 -31.185919217125537 a65.39103147390432,65.39103147390432 0 0,0 0.7976591073212732,-0.7942337056192063 l 31.04967661083413 31.72508877339485" fill="red" stroke="none" /><path d="M 88.39885842347998 82.49532879139004 l -26.514313403059646 -40.00678169310144 a68.99532682121401,68.99532682121401 0 0,0 0.9956123377913155,-0.64757395925837 l 25.821734039484042 40.45725457651935" fill="red" stroke="none" /><line stroke="#e1ed5e" stroke-width="0.3" x1="56.762969772571076" x2="54.21961505331055" y1="26.818313649435495" y2="22.513508569990535" /><path d="M 56.25429882871897 25.957352633546506 a86.0,86.0 0 0,1 42.265352541879196,-11.944610805530505" fill="none" id="id12" stroke="none" /><text fill="#e1ed5e" style="font-size:6.75px; font-family:Arial;" text-anchor="middle"><textPath startOffset="22.20632615414155" xlink:href="#id12">December</textPath></text><path d="M 89.63071344664047 81.73862282372117 l -10.159538244333213 -17.891988890642608 a41.575215279577215,41.575215279577215 0 0,0 0.6253623332601077,-0.34801346139382 l 9.850051822001058 18.06421774959661" fill="red" stroke="none" /></svg>