<?xml version="1.0" encoding="utf-8" ?>
<svg baseProfile="full" height="200mm" version="1.1" viewBox="0,0,200,200" width="200mm" xmlns="http://www.w3.org/2000/svg" xmlns:ev="http://www.w3.org/2001/xml-events" xmlns:xlink="http://www.w3.org/1999/xlink"><defs /><rect fill="#1a1a1a" height="200" width="200" x="0" y="0" /><text alignment-baseline="middle" fill="#e1ed5e" style="dominant-baseline: central; font-size:9.0px; font-family:Arial;" text-anchor="middle" x="100.0" y="100.0">2022</text><line stroke="#e1ed5e" stroke-width="0.3" x1="100.0" x2="100.0" y1="15.0" y2="10.0" /><path d="M 100.0 14.0 a86.0,86.0 0 0,1 42.46469731375804,11.215312516191453" fill="none" id="id13" stroke="none" /><text fill="#e1ed5e" style="font-size:6.75px; font-family:Arial;" text-anchor="middle"><textPath startOffset="22.20632615414155" xlink:href="#id13">January</textPath></text><path d="M 103.95276090670814 79.375362276772 l 3.1234576908487597 -16.29751579668281 a37.59412574044345,37.59412574044345 0 0,0 0.6345057604347494,0.12727588642292956 l -3.4035298607506346 16.24133595418267" fill="red" stroke="none" /><line stroke="#e1ed5e" stroke-width="0.3" x1="143.23703022742887" x2="145.7803849466894" y1="26.81831364943548" y2="22.513508569990506" /><path d="M 143.74570117128098 25.957352633546492 a86.0,86.0 0 0,1 28.547481713284135,27.462654790039103" fill="none" id="id14" stroke="none" /><text fill="#e1ed5e" style="font-size:6.75px; font-family:Arial;" text-anchor="middle"><textPath startOffset="19.985693538727396" xlink:href="#id14">February</textPath></text><line stroke="#e1ed5e" stroke-width="0.3" x1="172.23445277983987" x2="176.4835382374775" y1="55.19839476539836" y2="52.563006222186495" /><path d="M 173.08426987136738 54.67131705675599 a86.0,86.0 0 0,1 12.851231095245387,41.99856678651699" fill="none" id="id15" stroke="none" /><text fill="#e1ed5e" style="font-size:6.75px; font-family:Arial;" text-anchor="middle"><textPath startOffset="22.20632615414155" xlink:href="#id15">March</textPath></text><path d="M 118.56541770881063 90.18545643968196 l 55.696253126431905 -29.44363068095414 a84.0,84.0 0 0,0 0.6647622673595346,1.2841091109586207 l -56.19482482695156 28.480548847735175" fill="red" stroke="none" /><path d="M 119.7369772167798 92.82701384747503 l 20.510922266146572 -7.454260081199485 a42.82347189532572,42.82347189532572 0 0,0 0.2458208383813915,0.6949686126942937 l -20.636196185337774 7.100093842078577" fill="red" stroke="none" /><path d="M 119.97218684219823 93.5106431181261 l 23.049323728688098 -7.489179264299257 a45.23549319495426,45.23549319495426 0 0,0 0.2342434201900906,0.7426156547894919 l -23.174822632646393 7.091313443083346" fill="red" stroke="none" /><path d="M 120.18372546131832 94.20196356495316 l 24.980877106973516 -7.176080348657286 a46.991159077734466,46.991159077734466 0 0,0 0.21663646976882078,0.7793566450484202 l -25.1007003473087 6.745012400189913" fill="red" stroke="none" /><path d="M 120.53481517161879 95.60439243477599 l 18.371907766298822 -3.9326235025847027 a39.78809523571968,39.78809523571968 0 0,0 0.13759235667710099,0.6709491960884244 l -18.436879418890918 3.6157986503328665" fill="red" stroke="none" /><path d="M 120.6074358757038 95.95851677861258 l 10.046431087458522 -1.9702831016768605 a31.237811929108993,31.237811929108993 0 0,0 0.09894097367164983,0.528546637643519 l -10.07885778504003 1.7970583865707788" fill="red" stroke="none" /><path d="M 120.87857604477298 97.74499172005257 l 16.20495602872834 -1.7502299937794317 a37.29919951789486,37.29919951789486 0 0,0 0.06344926745386834,0.6389254643678155 l -16.232682421864435 1.4710289987071814" fill="red" stroke="none" /><path d="M 120.91429891909075 98.10471618934814 l 19.16853148077421 -1.7370798576623476 a40.24707888385477,40.24707888385477 0 0,0 0.0565864656573012,0.6904982092806647 l -19.195592430251004 1.4068677311739142" fill="red" stroke="none" /><line stroke="#e1ed5e" stroke-width="0.3" x1="184.98032266829074" x2="189.97916517819016" y1="98.17113171792111" y2="98.06355123074" /><path d="M 185.9800911702706 98.14961562048488 a86.0,86.0 0 0,1 -9.607161424134198,41.387399972396054" fill="none" id="id16" stroke="none" /><text fill="#e1ed5e" style="font-size:6.75px; font-family:Arial;" text-anchor="middle"><textPath startOffset="21.466115282336823" xlink:href="#id16">April</textPath></text><path d="M 120.81339534386255 102.79330883721812 l 18.705996260894107 2.5104805727880657 a39.87370681183033,39.87370681183033 0 0,0 -0.09715124040538602,0.6794755491209086 l -18.660010969472122 -2.832101593889383" fill="red" stroke="none" /><path d="M 118.64920377521936 109.65438752849418 l 12.143042727304646 6.286254452334281 a34.67371499325033,34.67371499325033 0 0,0 -0.27895415136355056,0.527676127763123 l -12.033036067716202 -6.494345595183538" fill="red" stroke="none" /><line stroke="#e1ed5e" stroke-width="0.3" x1="174.80103733775053" x2="179.2010983576182" y1="140.37084112569926" y2="142.7455964860345" /><path d="M 175.68104954172406 140.8457921977663 a86.0,86.0 0 0,1 -30.038265399797805,32.042727171017184" fill="none" id="id17" stroke="none" /><text fill="#e1ed5e" style="font-size:6.75px; font-family:Arial;" text-anchor="middle"><textPath startOffset="22.206326154141568" xlink:href="#id17">May</textPath></text><path d="M 118.48025628344425 109.97397251340804 l 15.237442599981204 8.223794699373109 a38.31503555425628,38.31503555425628 0 0,0 -0.31824028920792624,0.5776985640530398 l -15.093625901321769 -8.484863781823954" fill="red" stroke="none" /><path d="M 115.07121518719521 114.62390073753431 l 9.242472474958156 8.968155411782362 a33.87831933678616,33.87831933678616 0 0,0 -0.40970080013996074,0.41502474749270973 l -9.086731049762658 -9.125920653255736" fill="red" stroke="none" /><path d="M 114.81725581225074 114.88116024355365 l 4.859721537503018 4.88068073163989 a27.887520441078312,27.887520441078312 0 0,0 -0.343082963527314,0.3357788892033962 l -4.77498862159991 -4.963609723765858" fill="red" stroke="none" /><path d="M 114.0293411484842 115.62618273729858 l 6.595030942883936 7.345687697014729 a30.871857012724107,30.871857012724107 0 0,0 -0.3984787106320598,0.3516111318075469 l -6.4676098793452885 -7.458121970594565" fill="red" stroke="none" /><line stroke="#e1ed5e" stroke-width="0.3" x1="143.8653032363475" x2="146.44561519142675" y1="172.8068346515853" y2="177.08958963109032" /><path d="M 144.38136562736335 173.6633856474863 a86.0,86.0 0 0,1 -40.68145358897372,12.25698825130547" fill="none" id="id18" stroke="none" /><text fill="#e1ed5e" style="font-size:6.75px; font-family:Arial;" text-anchor="middle"><textPath startOffset="21.466115282336833" xlink:href="#id18">June</textPath></text><path d="M 104.83641907484287 120.43548508189849 l 4.362182472329765 18.431677126885507 a39.94083835609331,39.94083835609331 0 0,0 -0.6703971779466483,0.15258021507483405 l -4.044265144990255 -18.504034075538026" fill="red" stroke="none" /><line stroke="#e1ed5e" stroke-width="0.3" x1="102.19456741930631" x2="102.32365962044197" y1="184.97166512339345" y2="189.96999836594603" /><path d="M 102.22038585953345 185.97133177190398 a86.0,86.0 0 0,1 -42.740103519485714,-10.115201625700543" fill="none" id="id19" stroke="none" /><text fill="#e1ed5e" style="font-size:6.75px; font-family:Arial;" text-anchor="middle"><textPath startOffset="22.20632615414155" xlink:href="#id19">July</textPath></text><path d="M 98.73552117531835 120.96189622390904 l -1.0080205149793462 16.71045889747359 a37.74083456470356,37.74083456470356 0 0,0 -0.6481309706339916,-0.04469890642672304 l 1.295514246392268 -16.69063164653058" fill="red" stroke="none" /><line stroke="#e1ed5e" stroke-width="0.3" x1="58.666819895761336" x2="56.23545636021788" y1="174.27360380694188" y2="178.64263932499728" /><path d="M 58.180547188652646 175.14741091055294 a86.0,86.0 0 0,1 -31.652253787137756,-30.449443065178592" fill="none" id="id20" stroke="none" /><text fill="#e1ed5e" style="font-size:6.75px; font-family:Arial;" text-anchor="middle"><textPath startOffset="22.20632615414155" xlink:href="#id20">August</textPath></text><path d="M 89.4739219176387 118.17145234162733 l -8.01599319307011 13.83822513370588 a36.9922675603704,36.9922675603704 0 0,0 -0.5482467708715142,-0.3239138558615488 l 8.253007834970004 -13.698192705550582" fill="red" stroke="none" /><path d="M 88.8546689885994 117.79835938074946 l -7.650235110652929 12.216921481053207 a35.41455055568803,35.41455055568803 0 0,0 -0.5138789536498753,-0.32798186156053566 l 7.859395866349727 -12.083425190668867" fill="red" stroke="none" /><path d="M 85.97065885151581 115.62618273729859 l -12.909466944217602 14.378842696633361 a40.32370187304631,40.32370187304631 0 0,0 -0.5124959141466808,-0.4681528664121488 l 13.155062407831137 -14.154497063634636" fill="red" stroke="none" /><path d="M 85.18274418774928 114.88116024355367 l -22.39510513519343 22.49169160678898 a52.73983184188708,52.73983184188708 0 0,0 -0.6377987966305679,-0.6460868136755563 l 22.77894455687953 -22.102864299132758" fill="red" stroke="none" /><path d="M 84.67929136418377 114.36230785411682 l -32.28897229236593 30.269106434925757 a65.25829341565306,65.25829341565306 0 0,0 -0.7612025419158517,-0.8261350199217653 l 32.80522124227751 -29.708820160202645" fill="red" stroke="none" /><path d="M 83.50135304334701 112.99209946851258 l -26.168717389504053 20.60693705254017 a54.308371687896795,54.308371687896795 0 0,0 -0.5720305516833349,-0.7394265985450709 l 26.519554758405455 -20.153432459881845" fill="red" stroke="none" /><path d="M 82.6465618267979 111.8261652097733 l -39.256524397889756 26.752862369824847 a68.50568758349787,68.50568758349787 0 0,0 -0.6556871650469409,-0.9801633469423692 l 39.711214668347424 -26.07316210867666" fill="red" stroke="none" /><path d="M 82.44556493220864 111.52570212397912 l -26.71425157625418 17.539755904641833 a52.95769507448585,52.95769507448585 0 0,0 -0.49375519725455774,-0.7663190310039313 l 27.012211636885784 -17.077315273716454" fill="red" stroke="none" /><path d="M 82.24976979558568 111.22182372390057 l -19.221329959031465 12.151863612762483 a43.740433475576964,43.740433475576964 0 0,0 -0.3968618692070886,-0.6398676967319453 l 19.42765646790651 -11.819199584665274" fill="red" stroke="none" /><line stroke="#e1ed5e" stroke-width="0.3" x1="26.63291911575756" x2="22.317208475507996" y1="142.92168965132927" y2="145.44649492493687" /><path d="M 25.769776987707644 143.4266507060508 a86.0,86.0 0 0,1 -11.730757126820373,-40.83630448921669" fill="none" id="id21" stroke="none" /><text fill="#e1ed5e" style="font-size:6.75px; font-family:Arial;" text-anchor="middle"><textPath startOffset="21.46611528233685" xlink:href="#id21">September</textPath></text><path d="M 81.69416730710424 110.29060199501025 l -42.339695666504596 23.801209374264 a69.57105513379116,69.57105513379116 0 0,0 -0.5778492016515407,-1.0489641486442287 l 42.74312127760765 -23.06887470722195" fill="red" stroke="none" /><path d="M 80.32549172779594 107.34259656027581 l -29.54506458235262 11.026323330377515 a52.53554577554374,52.53554577554374 0 0,0 -0.3088983494347202,-0.8499555910822363 l 29.730487192792562 -10.516119942289162" fill="red" stroke="none" /><path d="M 80.0844068197444 106.66101706037122 l -50.24156265021137 16.803913542708372 a73.97722272718656,73.97722272718656 0 0,0 -0.39351566794874154,-1.2111166928663706 l 50.523370569176365 -15.9365979498642" fill="red" stroke="none" /><path d="M 79.86692584326677 105.97154293290107 l -29.931413572388237 8.877765998301772 a52.220253803612,52.220253803612 0 0,0 -0.2481888492036623,-0.8639779433960799 l 30.079795058478002 -8.361230579401095" fill="red" stroke="none" /><path d="M 79.29508885075956 103.50808413554451 l -35.13255943117743 5.952596149445903 a56.6332728373863,56.6332728373863 0 0,0 -0.15457713541987372,-0.9625519698149675 l 35.22981832095859 -5.346964949937722" fill="red" stroke="none" /><path d="M 79.23777060512086 103.15116336523772 l -31.209125162950752 4.73672889380874 a52.566534400376746,52.566534400376746 0 0,0 -0.12807698177923188,-0.8957701122606122 l 31.286036195746583 -4.198813309567727" fill="red" stroke="none" /><path d="M 79.0235259727143 100.99374915477108 l -35.783597541718926 1.695228653085172 a56.823730308469464,56.823730308469464 0 0,0 -0.037876715607483166,-0.9774297284266443 l 35.807476390177605 -1.0790216776445307" fill="red" stroke="none" /><path d="M 79.0095281055655 100.63252640178507 l -31.314279647389032 0.9436237893778054 a52.328493990148374,52.328493990148374 0 0,0 -0.01938132124015896,-0.9005738405906981 l 31.3258830313142 -0.40446013299697847" fill="red" stroke="none" /><line stroke="#e1ed5e" stroke-width="0.3" x1="15.007084014347285" x2="10.007500721073583" y1="101.09737516637583" y2="101.16192664675087" /><path d="M 14.007167355692545 101.11028546245083 a86.0,86.0 0 0,1 10.666146001902534,-42.60595125391555" fill="none" id="id22" stroke="none" /><text fill="#e1ed5e" style="font-size:6.75px; font-family:Arial;" text-anchor="middle"><textPath startOffset="22.20632615414155" xlink:href="#id22">October</textPath></text><path d="M 79.00019446554 99.90962569577889 l -29.254373796154425 -0.12589848381755572 a50.25464470188203,50.25464470188203 0 0,0 0.011168479482162728,-0.8650110439897026 l 29.24787230955455 0.6294457858677303" fill="red" stroke="none" /><path d="M 79.01574976396665 99.18683210126434 l -45.123535991470966 -1.7485976641042553 a66.15740353656847,66.15740353656847 0 0,0 0.05389116491195485,-1.13755731579593 l 45.08675121832551 2.5250660865231946" fill="red" stroke="none" /><path d="M 79.05617556472873 98.46500227214037 l -19.674599891835474 -1.4419747560361782 a40.72737114014075,40.72737114014075 0 0,0 0.05726174550417015,-0.6987383338336327 l 19.646863662511805 1.7804270070775894" fill="red" stroke="none" /><path d="M 79.12142395522702 97.74499172005258 l -40.05940372842509 -4.326649810965951 a61.292378009540336,61.292378009540336 0 0,0 0.12232104409287739,-1.0479720055850001 l 39.97899233132863 5.015565554875813" fill="red" stroke="none" /><path d="M 79.26566170972629 96.67025291283419 l -42.077836503657444 -6.757319745188889 a63.61696487277393,63.61696487277393 0 0,0 0.1829385754476276,-1.079713827850923 l 41.955286066689595 7.48061936135564" fill="red" stroke="none" /><path d="M 79.54389044137918 95.25157060432595 l -31.50883085504175 -7.3140720246264195 a53.346592887552376,53.346592887552376 0 0,0 0.21533529974781668,-0.8927038372066518 l 31.37826275503312 7.855361093492468" fill="red" stroke="none" /><path d="M 79.71946130924805 94.55025226153421 l -25.357537946722147 -6.814029310830184 a47.257108107487895,47.257108107487895 0 0,0 0.2178625356943104,-0.7837674565212895 l 25.236488640461477 7.249508070770416" fill="red" stroke="none" /><path d="M 79.81627453868168 94.20196356495316 l -26.547592752906702 -7.626139700479506 a48.621236172651905,48.621236172651905 0 0,0 0.23799887398512265,-0.8024138874998724 l 26.41238798180987 8.081982974725918" fill="red" stroke="none" /><path d="M 79.91906864156998 93.8553929516997 l -24.428820216925285 -7.475026840503863 a46.546884026376105,46.546884026376105 0 0,0 0.24103420883551377,-0.7641443105458166 l 24.296530524321568 7.894421317476094" fill="red" stroke="none" /><path d="M 80.02781315780177 93.51064311812611 l -24.855421207942197 -8.07601590862551 a47.1345364676819,47.1345364676819 0 0,0 0.2573606432474995,-0.7694755658290492 l 24.712723270922925 8.502664577376882" fill="red" stroke="none" /><path d="M 80.52162464483688 92.15188598940014 l -18.95940340497772 -7.639012842812839 a41.44048665480693,41.44048665480693 0 0,0 0.2722804020592958,-0.6593485906743423 l 18.825101316032224 7.964236003940493" fill="red" stroke="none" /><path d="M 80.65960295795068 91.81776055985345 l -22.28667522626124 -9.42870576180938 a45.199098846519554,45.199098846519554 0 0,0 0.3093109719516111,-0.7139323691097804 l 22.12107354446695 9.810937275505761" fill="red" stroke="none" /><path d="M 80.95270993114464 91.15688171328213 l -38.18821349452664 -17.729707893865708 a63.103232558858835,63.103232558858835 0 0,0 0.4658875785880698,-0.9812780566521266 l 37.87736772209682 18.384428366158367" fill="red" stroke="none" /><path d="M 81.10775173730289 90.83032412892265 l -36.08953592488798 -17.51667362016657 a61.11593770547088,61.11593770547088 0 0,0 0.46750778292127965,-0.9424671626576916 l 35.782668129013295 18.135300371323222" fill="red" stroke="none" /><path d="M 81.26839172434947 90.50648371742162 l -15.552282251630512 -7.882176619027201 a38.43565861927563,38.43565861927563 0 0,0 0.304173518704846,-0.5875664216512917 l 15.41429929976555 8.148715762938828" fill="red" stroke="none" /><path d="M 81.6062741919709 89.86733742301443 l -15.943488782506682 -8.782885741537799 a39.202579940954095,39.202579940954095 0 0,0 0.33068749896012634,-0.5882561615473559 l 15.789943642254125 9.05602541301994" fill="red" stroke="none" /><line stroke="#e1ed5e" stroke-width="0.3" x1="26.266209847984243" x2="21.928928074336255" y1="57.711370442889674" y2="55.22380399835377" /><path d="M 25.398753493254645 57.213857153982495 a86.0,86.0 0 0,1 29.58750427330803,-30.492523968695096" fill="none" id="id23" stroke="none" /><text fill="#e1ed5e" style="font-size:6.75px; font-family:Arial;" text-anchor="middle"><textPath startOffset="21.46611528233685" xlink:href="#id23">November</textPath></text><path d="M 81.78341655067845 89.55222093294921 l -33.32651614326636 -19.11379698108628 a59.41866620903927,59.41866620903927 0 0,0 0.5164906034446253,-0.8828498641758279 l 32.99256586535141 19.684626257616" fill="red" stroke="none" /><path d="M 82.15384107792192 88.93136811851018 l -36.46020741661066 -22.613527985451533 a63.90359393816642,63.90359393816642 0 0,0 0.5878290880741684,-0.9298044498724928 l 36.065550732290525 23.237780083038242" fill="red" stroke="none" /><path d="M 82.34701348167596 88.62581576622439 l -16.936525415895275 -10.912553530840446 a41.14769757879855,41.14769757879855 0 0,0 0.3887543641384948,-0.5920995674868005 l 16.746174416398862 11.202471162304914" fill="red" stroke="none" /><path d="M 82.95767976084542 87.72973835380427 l -31.48115222136302 -22.666043664193143 a59.791912566561344,59.791912566561344 0 0,0 0.6085603421328607,-0.8300756227553612 l 31.086329266716525 23.204581730620006" fill="red" stroke="none" /><path d="M 83.17141714833178 87.43820079747576 l -21.819410306513827 -16.287233060788825 a48.2279383520026,48.2279383520026 0 0,0 0.502314784331972,-0.6609873755036982 l 21.535819581957746 16.66040521217355" fill="red" stroke="none" /><path d="M 83.6137871275137 86.86637796730984 l -16.13610458388641 -12.933159134076815 a41.67946992380304,41.67946992380304 0 0,0 0.4535153203355066,-0.5559561584762405 l 15.91109077147451 13.208999462161138" fill="red" stroke="none" /><path d="M 84.80347519578584 85.50635884689758 l -23.074641513762824 -22.007371958108187 a52.88672923790073,52.88672923790073 0 0,0 0.6339752250017503,-0.6533671973598844 l 22.692402025057955 22.401303351018196" fill="red" stroke="none" /><path d="M 85.57189188830299 84.74124197986013 l -12.674732032659701 -13.404437197117893 a39.447974649570824,39.447974649570824 0 0,0 0.49740536606984415,-0.46228407856680687 l 12.442118782795001 13.620625861759347" fill="red" stroke="none" /><path d="M 85.83668400450813 84.49514656593479 l -31.41133687484841 -34.38659241717066 a67.57370312021399,67.57370312021399 0 0,0 0.8655516031804471,-0.7771007754601028 l 30.81477428407199 34.922192201400044" fill="red" stroke="none" /><path d="M 86.37877921826538 84.01681056812374 l -24.753952049474442 -29.04637632222177 a59.163465769238066,59.163465769238066 0 0,0 0.7807956488248571,-0.6538939014100454 l 24.250298863690475 29.46817138102563" fill="red" stroke="none" /><path d="M 86.65592168130627 83.78471172551755 l -12.850986844819753 -15.616099615393502 a41.22400628173418,41.22400628173418 0 0,0 0.5518060982548172,-0.4461888225801526 l 12.580277348000434 15.834994535237788" fill="red" stroke="none" /><path d="M 87.22198572758235 83.33499621200491 l -23.06408430250861 -30.0800299697287 a58.904619608868266,58.904619608868266 0 0,0 0.8099493082599846,-0.6100370269712857 l 22.542888840490235 30.472583586205836" fill="red" stroke="none" /><path d="M 87.51073957382395 83.11751280151077 l -10.490908478164553 -14.181194245251518 a38.63988182836778,38.63988182836778 0 0,0 0.5381149722020265,-0.390963412261196 l 10.245248189608745 14.359676892329382" fill="red" stroke="none" /><path d="M 88.39885842347998 82.49532879139004 l -7.3652539106322985 -11.113246676903406 a34.33233726207783,34.33233726207783 0 0,0 0.4954204891573518,-0.32223526716539164 l 7.17286639569066 11.238380868228333" fill="red" stroke="none" /><line stroke="#e1ed5e" stroke-width="0.3" x1="56.762969772571076" x2="54.21961505331055" y1="26.818313649435495" y2="22.513508569990535" /><path d="M 56.25429882871897 25.957352633546506 a86.0,86.0 0 0,1 42.265352541879196,-11.944610805530505" fill="none" id="id24" stroke="none" /><text fill="#e1ed5e" style="font-size:6.75px; font-family:Arial;" text-anchor="middle"><textPath startOffset="22.20632615414155" xlink:href="#id24">December</textPath></text><path d="M 94.28887869178378 79.79150937346287 l -8.00704938642103 -28.332506654853027 a50.4422107394108,50.4422107394108 0 0,0 0.8375859693835409,-0.22894388542581937 l 7.518165527813768 28.466137081105142" fill="red" stroke="none" /><path d="M 97.11714578562143 79.19881850522333 l -2.376400050280101 -17.146870800308022 a38.31076126117587,38.31076126117587 0 0,0 0.6539925548468227,-0.0849070033311218 l 2.0808927669254205 17.185236126803282" fill="red" stroke="none" /></svg>