<?xml version="1.0" encoding="utf-8" ?>
<svg baseProfile="full" height="200mm" version="1.1" viewBox="0,0,200,200" width="200mm" xmlns="http://www.w3.org/2000/svg" xmlns:ev="http://www.w3.org/2001/xml-events" xmlns:xlink="http://www.w3.org/1999/xlink"><defs /><rect fill="#1a1a1a" height="200" width="200" x="0" y="0" /><text alignment-baseline="middle" fill="#e1ed5e" style="dominant-baseline: central; font-size:9.0px; font-family:Arial;" text-anchor="middle" x="100.0" y="100.0">2023</text><line stroke="#e1ed5e" stroke-width="0.3" x1="100.0" x2="100.0" y1="15.0" y2="10.0" /><path d="M 100.0 14.0 a86.0,86.0 0 0,1 42.46469731375804,11.215312516191453" fill="none" id="id25" stroke="none" /><text fill="#e1ed5e" style="font-size:6.75px; font-family:Arial;" text-anchor="middle"><textPath startOffset="22.20632615414155" xlink:href="#id25">January</textPath></text><path d="M 102.52436894288641 79.15227682838746 l 0.8296947026139658 -6.852106751587345 a27.902156201846967,27.902156201846967 0 0,0 0.47631009720169504,0.061838720808101925 l -0.947519528323507 6.836809707615107" fill="#ff4e07" stroke="none" /><path d="M 103.2404852339499 79.25152402106235 l 0.8196404816179959 -5.248069229276043 a26.31168910558412,26.31168910558412 0 0,0 0.4468862400531332,0.0737400586778281 l -0.9098559278100042 5.233182907658589" fill="#ff3705" stroke="none" /><path d="M 109.08828744355905 81.06846463323043 l 6.910248457020675 -14.39452854783616 a36.967278598816605,36.967278598816605 0 0,0 0.5712830517022063,0.2803261124152192 l -7.1570027757333134 14.273447275286108" fill="#ffc712" stroke="none" /><path d="M 110.36928655335952 81.73862282372117 l 5.214613871219549 -9.18346987914454 a31.560696797421578,31.560696797421578 0 0,0 0.47010900399545325,0.2723174785507604 l -5.37191960768033 9.09234824320373" fill="#ff800b" stroke="none" /><line stroke="#e1ed5e" stroke-width="0.3" x1="143.23703022742887" x2="145.7803849466894" y1="26.81831364943548" y2="22.513508569990506" /><path d="M 143.74570117128098 25.957352633546492 a86.0,86.0 0 0,1 28.547481713284135,27.462654790039103" fill="none" id="id26" stroke="none" /><text fill="#e1ed5e" style="font-size:6.75px; font-family:Arial;" text-anchor="middle"><textPath startOffset="19.985693538727396" xlink:href="#id26">February</textPath></text><path d="M 112.48926042617603 83.11751280151076 l 4.298352313226181 -5.810342280199871 a28.22744145750729,28.22744145750729 0 0,0 0.3881324900197765,0.2923333446525105 l -4.397730957004341 5.7354923460415135" fill="#ff5207" stroke="none" /><path d="M 114.94478906791727 85.2469230424477 l 2.3644781111981894 -2.3341465296315613 a24.322498571877258,24.322498571877258 0 0,0 0.2915639088843619,0.30048223729648166 l -2.4043062837856604 2.293100096784963" fill="#ff1a02" stroke="none" /><path d="M 117.04232023915458 87.72973835380427 l 3.8024859088531673 -2.73774323876426 a25.68552421063282,25.68552421063282 0 0,0 0.25524975030861435,0.36103267009833073 l -3.8490482789656646 2.671884068334136" fill="#ff2e04" stroke="none" /><path d="M 117.2510076193507 88.02491185347247 l 4.290142637138268 -2.978077418694022 a26.222477281781792,26.222477281781792 0 0,0 0.2542026106727728,0.3730109642076532 l -4.340769713479774 2.903788431215962" fill="#ff3605" stroke="none" /><path d="M 117.45458315368197 88.32363383020206 l 9.689779204362845 -6.482045953115025 a32.65799042578083,32.65799042578083 0 0,0 0.3085454849011234,0.4699359415933828 l -9.799921324621893 6.314291947543969" fill="#ff8f0d" stroke="none" /><path d="M 117.65298651832404 88.62581576622439 l 10.616907033568667 -6.840692733058455 a33.62987696011163,33.62987696011163 0 0,0 0.30935067477797695,0.48931847677352047 l -10.733085304592601 6.656926608570728" fill="#ff9c0e" stroke="none" /><line stroke="#e1ed5e" stroke-width="0.3" x1="172.23445277983987" x2="176.4835382374775" y1="55.19839476539836" y2="52.563006222186495" /><path d="M 173.08426987136738 54.67131705675599 a86.0,86.0 0 0,1 12.851231095245387,41.99856678651699" fill="none" id="id27" stroke="none" /><text fill="#e1ed5e" style="font-size:6.75px; font-family:Arial;" text-anchor="middle"><textPath startOffset="22.20632615414155" xlink:href="#id27">March</textPath></text><path d="M 117.84615892207809 88.93136811851018 l 22.483198164424618 -13.944639016563544 a47.456514453023715,47.456514453023715 0 0,0 0.4245871111487922,0.6979095730646494 l -22.71990107385963 13.555561670291812" fill="#b7ff1f" stroke="none" /><path d="M 118.21658344932153 89.55222093294921 l 7.080790160753801 -4.061054117283342 a29.16270481177237,29.16270481177237 0 0,0 0.24599763412618436,0.4376023419568289 l -7.149645436172419 3.938568265391719" fill="#ff5f08" stroke="none" /><path d="M 118.3937258080291 89.86733742301442 l 7.516900364731818 -4.140880200975914 a29.581997432540962,29.581997432540962 0 0,0 0.2418566365765453,0.4481236159191251 l -7.587065100526828 4.010875601724329" fill="#ff6509" stroke="none" /><path d="M 118.73160827565052 90.50648371742162 l 10.531800512848546 -5.337706094546377 a32.80719816019848,32.80719816019848 0 0,0 0.2509594232137741,0.5059188834473891 l -10.622119949015728 5.155627622600038" fill="#ff910d" stroke="none" /><path d="M 118.89224826269711 90.83032412892265 l 8.13115742837023 -3.9465963520115936 a30.03832638770318,30.03832638770318 0 0,0 0.22177125605334935,0.4671068239699697 l -8.197886878265336 3.806047112401084" fill="#ff6b09" stroke="none" /><path d="M 119.196687751892 91.48605970444005 l 11.726379161923008 -5.200776996431108 a33.8279401938031,33.8279401938031 0 0,0 0.23149472727312823,0.5343217475789396 l -11.814164599038818 4.998156104265566" fill="#ff9e0e" stroke="none" /><path d="M 119.47837535516314 92.15188598940014 l 5.894150740957996 -2.3748370265612704 a27.35459391777807,27.35459391777807 0 0,0 0.17221208363319368,0.4382609687765789 l -5.93415637447289 2.273027052888907" fill="#ff4606" stroke="none" /><path d="M 119.61058180528143 92.48833698450437 l 1.9251949365326826 -0.7374291974589625 a23.061595829670804,23.061595829670804 0 0,0 0.13880380450954496,0.3719251871757294 l -1.9376033295438528 0.7041808732538999" fill="#ff0801" stroke="none" /><path d="M 119.85752413597 93.16781622104841 l 4.002837141834721 -1.3772169583160476 a25.233134977097336,25.233134977097336 0 0,0 0.13777616871886597,0.4119332079876527 l -4.025950604325357 1.3081106474060809" fill="#ff2803" stroke="none" /><path d="M 120.28053869075195 94.5502522615342 l 14.979301292052071 -4.02520931938479 a36.51069879995531,36.51069879995531 0 0,0 0.15787168461973308,0.6083440007530314 l -15.04636930854211 3.7667688930829084" fill="#ffc112" stroke="none" /><path d="M 120.37134235888165 94.90015583598534 l 5.634308356497284 -1.4105155214582086 a26.808182563622605,26.808182563622605 0 0,0 0.10821212219119417,0.4486091078679898 l -5.657753278949296 1.3133211819308126" fill="#ff3e05" stroke="none" /><path d="M 120.53481517161879 95.60439243477599 l 3.407485039488325 -0.7293938071896366 a24.484676401088535,24.484676401088535 0 0,0 0.08467116378764329,0.4128866649803178 l -3.419535499190965 0.670631486045907" fill="#ff1d02" stroke="none" /><path d="M 120.67395015179393 96.31383870115 l 6.608676261935232 -1.1783256946307596 a27.71290200864673,27.71290200864673 0 0,0 0.0796919316273642,0.470346291566298 l -6.627980055082819 1.0643936147486237" fill="#ff4b07" stroke="none" /><path d="M 120.87857604477298 97.74499172005257 l 12.179341734230034 -1.3154401141199392 a33.2501733772626,33.2501733772626 0 0,0 0.05656151260000276,0.5695667129581578 l -12.200180372512264 1.1055978704573466" fill="#ff970d" stroke="none" /><path d="M 120.91429891909075 98.10471618934814 l 6.225014884039498 -0.564119790791432 a27.250523293683166,27.250523293683166 0 0,0 0.03831360792547036,0.46752306150093137 l -6.233802975784463 0.45688281208273196" fill="#ff4406" stroke="none" /><path d="M 120.96714384426684 98.82574320788733 l 14.754038017425831 -0.8262942001892204 a35.77715804628593,35.77715804628593 0 0,0 0.029143718182470527,0.6151778289098775 l -14.766075343841798 0.5722052646563431" fill="#ffb811" stroke="none" /><path d="M 120.98425023603335 99.18683210126433 l 2.6559316660075334 -0.10292092153591853 a23.657925079943254,23.657925079943254 0 0,0 0.012266415086470469,0.40706259911268156 l -2.657309775549649 0.05718817499823788" fill="#ff1101" stroke="none" /><line stroke="#e1ed5e" stroke-width="0.3" x1="184.98032266829074" x2="189.97916517819016" y1="98.17113171792111" y2="98.06355123074" /><path d="M 185.9800911702706 98.14961562048488 a86.0,86.0 0 0,1 -9.607161424134198,41.387399972396054" fill="none" id="id28" stroke="none" /><text fill="#e1ed5e" style="font-size:6.75px; font-family:Arial;" text-anchor="middle"><textPath startOffset="21.466115282336823" xlink:href="#id28">April</textPath></text><path d="M 120.99513854157772 99.54816195383933 l 23.453132750248525 -0.5047367349938299 a44.45856336122125,44.45856336122125 0 0,0 0.009880371369686274,0.7652456511334783 l -23.458346128735926 0.10095482579988879" fill="#daff1b" stroke="none" /><path d="M 120.99980553446 99.90962569577887 l 7.429523167960973 -0.03197353355950993 a28.429591967942596,28.429591967942596 0 0,0 -0.0021060949182310313,0.48938228737847156 l -7.4289727757532384 -0.09591823202264635" fill="#ff5507" stroke="none" /><path d="M 120.99824983174949 100.27111621757518 l 7.363271958156816 0.09506994431766788 a28.36388567429527,28.36388567429527 0 0,0 -0.010505358323061126,0.48814272125977026 l -7.360544537148748 -0.22180248136755298" fill="#ff5407" stroke="none" /><path d="M 120.9764740272857 100.99374915477107 l 4.07121616493773 0.19287167221404908 a25.07578220021543,25.07578220021543 0 0,0 -0.02413681250551872,0.4309790014795475 l -4.067293001544682 -0.26292239002901985" fill="#ff2503" stroke="none" /><path d="M 120.95626037817324 101.35467743843564 l 15.11929933978615 0.977358237154552 a36.15085613586875,36.15085613586875 0 0,0 -0.045487144111433155,0.6206359416962499 l -15.100235637010378 -1.2374673153475721" fill="#ffbd11" stroke="none" /><path d="M 120.92983693683757 101.71520430193887 l 7.379018393870627 0.6047120257767911 a28.403755066937325,28.403755066937325 0 0,0 -0.044127808395518914,0.48694668853358475 l -7.367515989198033 -0.7316401028589463" fill="#ff5507" stroke="none" /><path d="M 120.89721153311464 102.0752229133903 l 17.916768353839625 1.7792463919348798 a39.00489672195768,39.00489672195768 0 0,0 -0.07209906290169348,0.6675477783988301 l -17.88348698943688 -2.087390492218501" fill="#ffe115" stroke="none" /><path d="M 120.8583938346157 102.4346265915055 l 1.6207352054571338 0.18917492210961417 a22.631738262517416,22.631738262517416 0 0,0 -0.04849495547303064,0.3865525097323637 l -1.617238740737255 -0.21704518612937282" fill="#ff0200" stroke="none" /><path d="M 120.81339534386255 102.79330883721812 l 9.901125018437064 1.3288028961866172 a30.98989458240848,30.98989458240848 0 0,0 -0.07550606500973403,0.5280892428173646 l -9.876784902410728 -1.499037610984391" fill="#ff780b" stroke="none" /><path d="M 120.76222939487914 103.15116336523771 l 5.3817936108677005 0.8168155039275036 a26.443426314136413,26.443426314136413 0 0,0 -0.07217575261918287,0.44943848045678775 l -5.366936103887229 -0.9093332140774962" fill="#ff3905" stroke="none" /><path d="M 120.70491114924044 103.5080841355445 l 8.481568254497462 1.437053017212872 a29.602448571771863,29.602448571771863 0 0,0 -0.0894466989214346,0.5016645894798966 l -8.45557511323684 -1.5828363574259867" fill="#ff6509" stroke="none" /><path d="M 120.5718875245553 104.21870165774334 l 14.46262247525729 2.9658673439107726 a35.763597731023886,35.763597731023886 0 0,0 -0.1288612857614404,0.6019970269464856 l -14.409427150771405 -3.214378190273427" fill="#ffb811" stroke="none" /><path d="M 120.41448212921028 104.9243191809786 l 11.517338052968823 2.778177194458329 a32.847672528820674,32.847672528820674 0 0,0 -0.1373168571319715,0.5485125855451595 l -11.467809881541791 -2.976017619400884" fill="#ff910d" stroke="none" /><path d="M 120.32669344350535 105.2749913415812 l 6.17477459775733 1.602419135700236 a27.379309399893337,27.379309399893337 0 0,0 -0.12230979443988833,0.45516024547117634 l -6.146276726975665 -1.7084703143469606" fill="#ff4606" stroke="none" /><path d="M 120.23288151984713 105.62410040840565 l 8.50345788550802 2.3636920386171134 a29.825861774582155,29.825861774582155 0 0,0 -0.14175431506289185,0.49346536715296246 l -8.46151093355903 -2.509714881274658" fill="#ff6809" stroke="none" /><path d="M 120.13307415673323 105.97154293290107 l 14.066982536195361 4.172318121779088 a35.67270377888654,35.67270377888654 0 0,0 -0.17967700057740507,0.5871948339286372 l -13.993078763111823 -4.413839928259782" fill="#ffb710" stroke="none" /><path d="M 120.02730092923936 106.31721596034902 l 4.299110119673612 1.3560692556254312 a25.50791211617225,25.50791211617225 0 0,0 -0.13568721160823818,0.4176022973718926 l -4.275130657049127 -1.4298704529751192" fill="#ff2c04" stroke="none" /><path d="M 119.79798401119884 107.00284435728193 l 13.924694905462784 4.92537376989667 a35.77011966719997,35.77011966719997 0 0,0 -0.21032104570661855,0.578713188489786 l -13.837849598750939 -5.164334755392588" fill="#ffb811" stroke="none" /><path d="M 119.54520255179757 107.68017299344265 l 3.6253598098022803 1.4245639270796453 a24.895204247901027,24.895204247901027 0 0,0 -0.16015604816284223,0.39749417723826136 l -3.6003011473820457 -1.4867574721607202" fill="#ff2303" stroke="none" /><path d="M 119.41010516605496 108.01547362559984 l 2.987746832393895 1.2338009366844718 a24.23247519493085,24.23247519493085 0 0,0 -0.16252954068989156,0.3841718237407276 l -2.9660663105116947 -1.2850472860913629" fill="#ff1902" stroke="none" /><path d="M 119.26925614724726 108.34839909993367 l 11.983980757786314 5.192055853501021 a34.06036901426858,34.06036901426858 0 0,0 -0.23770717792303653,0.535966933354189 l -11.892832495132005 -5.397571123347897" fill="#ffa10e" stroke="none" /><path d="M 119.12269723197855 108.67885076344098 l 12.689492298083556 5.7591357841890725 a34.93523805910215,34.93523805910215 0 0,0 -0.2532395237780253,0.5454554049722118 l -12.5884781574657 -5.976711256440115" fill="#ffad10" stroke="none" /><line stroke="#e1ed5e" stroke-width="0.3" x1="174.80103733775053" x2="179.2010983576182" y1="140.37084112569926" y2="142.7455964860345" /><path d="M 175.68104954172406 140.8457921977663 a86.0,86.0 0 0,1 -30.038265399797805,32.042727171017184" fill="none" id="id29" stroke="none" /><text fill="#e1ed5e" style="font-size:6.75px; font-family:Arial;" text-anchor="middle"><textPath startOffset="22.206326154141568" xlink:href="#id29">May</textPath></text><path d="M 118.48025628344425 109.97397251340804 l 12.51538780238058 6.754675477494054 a35.221834363057255,35.221834363057255 0 0,0 -0.29254851501470147,0.5310605312120569 l -12.397262877914372 -6.969106527103915" fill="#ffb110" stroke="none" /><path d="M 118.30583269289576 110.29060199501025 l 4.982111624580549 2.8006881021680643 a26.71535563945118,26.71535563945118 0 0,0 -0.22879539923021439,0.3989240637794777 l -4.933164229197953 -2.886032011805857" fill="#ff3d05" stroke="none" /><path d="M 118.12598468904814 110.60418214915192 l 6.380278548806356 3.732632298577886 a28.39192114654542,28.39192114654542 0 0,0 -0.2504155605718156,0.41971088339449536 l -6.315082112536313 -3.841905275858486" fill="#ff5407" stroke="none" /><path d="M 117.75023020441432 111.22182372390056 l 4.713337118319125 2.9798057649945737 a26.576270186067003,26.576270186067003 0 0,0 -0.24778592628616547,0.3845692601998652 l -4.661346328655911 -3.060496625115894" fill="#ff3b05" stroke="none" /><path d="M 117.55443506779137 111.5257021239791 l 25.13944220978069 16.50578451280085 a51.07378388234376,51.07378388234376 0 0,0 -0.4888415216797592,0.7307517480226062 l -24.851597582690207 -16.936073175029264" fill="#8fff24" stroke="none" /><path d="M 117.14729908036423 112.12312394758627 l 6.5765548774507385 4.64961796920759 a29.05419277865257,29.05419277865257 0 0,0 -0.2922301252888694,0.4058820848571945 l -6.495544959786266 -4.762133659515916" fill="#ff5e08" stroke="none" /><path d="M 116.93607887273984 112.41649034213515 l 3.5633194740401164 2.612406458886761 a25.41836091560058,25.41836091560058 0 0,0 -0.2617349603369738,0.35063675148730017 l -3.5178232470080504 -2.673356089883376" fill="#ff2a04" stroke="none" /><path d="M 116.71984013943494 112.70617746262583 l 18.102660299576026 13.757046263231668 a43.736812261408645,43.736812261408645 0 0,0 -0.46068022423032323,0.5954912901368593 l -17.863173258127638 -14.066615547481781" fill="#e3ff1b" stroke="none" /><path d="M 116.27256486870786 113.27417163493432 l 7.063110693340921 5.761657389379468 a30.11505504859833,30.11505504859833 0 0,0 -0.33112793686416647,0.39886493110317806 l -6.96288675658321 -5.882383577596417" fill="#ff6c0a" stroke="none" /><path d="M 116.0416608686014 113.55231037782055 l 1.154648089982384 0.9754693993829103 a22.511539864122817,22.511539864122817 0 0,0 -0.2526196661941217,0.29385374332829756 l -1.1376859142174836 -0.9952002418727359" fill="#ff0000" stroke="none" /><path d="M 115.80600337817218 113.82643327865902 l 15.803493425745726 13.82423767684074 a41.9966652543534,41.9966652543534 0 0,0 -0.4806441351507123,0.5400087811153182 l -15.563190440946675 -14.094220627696924" fill="#f8ff18" stroke="none" /><path d="M 115.32070863581623 114.36230785411682 l 2.2006341095974307 2.0629714530580316 a24.01639548144073,24.01639548144073 0 0,0 -0.28533015867196676,0.2991675306326156 l -2.1647973995464995 -2.1005461002731547" fill="#ff1602" stroke="none" /><path d="M 115.07121518719521 114.62390073753431 l 5.205340991328276 5.050846200303626 a28.253042270325192,28.253042270325192 0 0,0 -0.3416726169167294,0.34611255704796473 l -5.117627749356012 -5.139699251332256" fill="#ff5207" stroke="none" /><path d="M 114.55890576462653 115.13401014063108 l 5.26018302287424 5.467970223639696 a28.58737265466411,28.58737265466411 0 0,0 -0.35756563739506625,0.33810062827882686 l -5.165281551088366 -5.557705488664444" fill="#ff5708" stroke="none" /><path d="M 114.0293411484842 115.62618273729858 l 20.597831008648583 22.942308403977595 a51.83212865119867,51.83212865119867 0 0,0 -0.6690235636208073,0.5903355088594396 l -20.19986509212119 -23.293467054609323" fill="#87ff25" stroke="none" /><path d="M 113.48314897796784 116.09983520530334 l 10.58597112932539 12.640399579410788 a37.48764647480286,37.48764647480286 0 0,0 -0.49828199722256117,0.4100521608485098 l -10.366819003558138 -12.820746859116475" fill="#ffce13" stroke="none" /><path d="M 113.20401910651253 116.32954008644616 l 9.350769818203107 11.56418885445011 a35.871696609815785,35.871696609815785 0 0,0 -0.4834864261392741,0.38411085784023175 l -9.15032589934648 -11.723433626295469" fill="#ffb911" stroke="none" /><path d="M 112.92097659922987 116.55440617244103 l 6.451359526879664 8.265507266593023 a31.485163332974984,31.485163332974984 0 0,0 -0.4301042304247887,0.3297855833044709 l -6.308126567961382 -8.375332191724866" fill="#ff7f0b" stroke="none" /><path d="M 112.04921762599082 117.19931262002967 l 4.167834178269693 5.949256226053954 a28.263917082455908,28.263917082455908 0 0,0 -0.4008672912666274,0.2757201782362992 l -4.064810002380183 -6.0201171936553495" fill="#ff5307" stroke="none" /><path d="M 111.7513745106137 117.40417183066458 l 17.439697462378888 25.828765055177865 a52.16517530601877,52.16517530601877 0 0,0 -0.7485089125889852,0.49607089232048746 l -16.99251385104994 -26.125133968589672" fill="#83ff25" stroke="none" /><path d="M 111.1453310114006 117.79835938074945 l 5.11152176434065 8.162763515161371 a30.63111431516508,30.63111431516508 0 0,0 -0.44928668277724093,0.27598857630131424 l -4.9702558816311 -8.249540558291063" fill="#ff730a" stroke="none" /><line stroke="#e1ed5e" stroke-width="0.3" x1="143.8653032363475" x2="146.44561519142675" y1="172.8068346515853" y2="177.08958963109032" /><path d="M 144.38136562736335 173.6633856474863 a86.0,86.0 0 0,1 -40.68145358897372,12.25698825130547" fill="none" id="id30" stroke="none" /><text fill="#e1ed5e" style="font-size:6.75px; font-family:Arial;" text-anchor="middle"><textPath startOffset="21.466115282336833" xlink:href="#id30">June</textPath></text><path d="M 110.8373102113329 117.98757091392108 l 6.672094863691359 11.074222031547436 a33.92885313839194,33.92885313839194 0 0,0 -0.5028451998012897,0.29708980740586705 l -6.480481792861688 -11.187430411247052" fill="#ffa00e" stroke="none" /><path d="M 110.5260780823613 118.17145234162733 l 7.200038966292245 12.429621356607802 a35.36440211720514,35.36440211720514 0 0,0 -0.5293734958399045,0.30059208673746934 l -6.985016703531141 -12.551716609139898" fill="#ffb310" stroke="none" /><path d="M 109.89434966115114 118.52300852407294 l 12.78700698006935 23.938292803536143 a48.139443801525715,48.139443801525715 0 0,0 -0.734261990330628,0.38413116997618174 l -12.373054087212227 -24.154853392457042" fill="#b0ff20" stroke="none" /><path d="M 109.57404056367764 118.69057910512821 l 3.370867220666153 6.58065526479691 a28.393765585509243,28.393765585509243 0 0,0 -0.43692068548233465,0.2190811020254865 l -3.257092627501058 -6.637704207731698" fill="#ff5407" stroke="none" /><path d="M 109.2508944713604 118.85261126421891 l 8.22128178649422 16.754339820242933 a39.662726945039935,39.662726945039935 0 0,0 -0.615503822093064,0.29547923871034126 l -7.931665296400923 -16.893373335452836" fill="#ffe915" stroke="none" /><path d="M 108.92500713936063 119.00905698771935 l 5.099342926784621 10.86091011262951 a32.99844434747965,32.99844434747965 0 0,0 -0.5162402408587979,0.23698057459340044 l -4.911634690158403 -10.947077757556984" fill="#ff930d" stroke="none" /><path d="M 108.59647513512805 119.15986991738527 l 4.55521726635938 10.152692690545779 a32.127765867971895,32.127765867971895 0 0,0 -0.50651614515818,0.2220417928999656 l -4.379780446543446 -10.229599036740199" fill="#ff880c" stroke="none" /><path d="M 107.59598834532513 119.57807347666477 l 5.696795114277626 14.683049559636784 a36.749457734944635,36.749457734944635 0 0,0 -0.5917183824331639,0.2237372609069086 l -5.443206511084187 -14.778935070650324" fill="#ffc412" stroke="none" /><path d="M 107.2578585660854 119.70592522655815 l 3.606794093672506 9.79286301466702 a31.43595370142011,31.43595370142011 0 0,0 -0.5093828636925024,0.18264657194591594 l -3.4376916693502686 -9.853497127652895" fill="#ff7e0b" stroke="none" /><path d="M 106.91757812671514 119.82793768551818 l 2.48704275513999 7.128640669729853 a28.550026454524566,28.550026454524566 0 0,0 -0.4654065800393633,0.15789118078133588 l -2.3639664421633997 -7.170394837409312" fill="#ff5708" stroke="none" /><path d="M 106.57524785965236 119.94407469862006 l 2.298842152392089 6.972859515910075 a28.342032761451858,28.342032761451858 0 0,0 -0.4646455674524355,0.14876483767486542 l -2.178475239848713 -7.011397200244647" fill="#ff5407" stroke="none" /><path d="M 106.2309692047433 120.05430185196036 l 3.435139863092492 11.055957661565206 a32.577322043258945,32.577322043258945 0 0,0 -0.5369441154710164,0.16177685737167471 l -3.24432077318123 -11.113449888042606" fill="#ff8e0d" stroke="none" /><path d="M 105.88484417918355 120.15858648285463 l 5.074535153505529 17.38286565242912 a39.10842139211929,39.10842139211929 0 0,0 -0.6478381365213993,0.18308552846118678 l -4.774565848879524 -17.467639974228828" fill="#ffe215" stroke="none" /><path d="M 105.53697534728816 120.25689768951611 l 4.4290877380914955 16.203716206240955 a37.79813195221743,37.79813195221743 0 0,0 -0.6290861124367669,0.16614735996925145 l -4.149511182843231 -16.27755491551379" fill="#ffd213" stroke="none" /><path d="M 105.18746579009965 120.34920634021253 l 4.640506292249144 18.20361307138728 a39.7857879127064,39.7857879127064 0 0,0 -0.6650795314599446,0.16346036752824689 l -4.326473476045988 -18.280794697229556" fill="#ffeb16" stroke="none" /><path d="M 104.13013068566511 120.58985236759428 l 4.26385816831588 21.256521133022467 a42.679948735136456,42.679948735136456 0 0,0 -0.7215601909234698,0.13828872791821134 l -3.8973303628207057 -21.326767059289146" fill="#f0ff19" stroke="none" /><path d="M 103.7750983002368 120.6578951692458 l 6.3624386745645305 34.81620363413171 a56.39277696622463,56.39277696622463 0 0,0 -0.9563974056222949,0.1662819481379281 l -5.762192297470185 -34.92056416079065" fill="#57ff2a" stroke="none" /><path d="M 103.41894727170886 120.7198165907248 l 0.8387465033205146 5.083048182321511 a26.151783625176275,26.151783625176275 0 0,0 -0.4447847244563337,0.06946622650021786 l -0.7511259152556639 -5.096732716168835" fill="#ff3505" stroke="none" /><path d="M 103.06178313531738 120.77559828337769 l 2.4522069023413575 16.639344871657308 a37.81907002333479,37.81907002333479 0 0,0 -0.6448536992028284,0.08937084678922275 l -2.1654246119516984 -16.679090283939132" fill="#ffd213" stroke="none" /><path d="M 102.70371172650421 120.8252237178851 l 0.7932994168601252 6.110354765054934 a27.16163609113847,27.16163609113847 0 0,0 -0.46416982562702364,0.05620450168070706 l -0.6880021681817212 -6.123104795460992" fill="#ff4306" stroke="none" /><path d="M 101.98527174616119 120.90594882070398 l 1.614077317754414 16.997077535043488 a38.073543578295904,38.073543578295904 0 0,0 -0.6529715744494431,0.0563411350045923 l -1.3212614255634292 -17.022342922326747" fill="#ffd513" stroke="none" /><path d="M 101.62511606390274 120.93702456842531 l 1.1436766988824756 14.734447387919698 a35.778766397062384,35.778766397062384 0 0,0 -0.6144359779129598,0.04237510245047851 l -0.8898779601905855 -14.751950834886461" fill="#ffb811" stroke="none" /><path d="M 100.90346689309514 120.98055641714683 l 0.866933286224396 20.13216296086017 a41.150820301054594,41.150820301054594 0 0,0 -0.7079501850792659,0.024383235806553064 l -0.5202627494704779 -20.144102995092815" fill="#fffc17" stroke="none" /><line stroke="#e1ed5e" stroke-width="0.3" x1="102.19456741930631" x2="102.32365962044197" y1="184.97166512339345" y2="189.96999836594603" /><path d="M 102.22038585953345 185.97133177190398 a86.0,86.0 0 0,1 -42.740103519485714,-10.115201625700543" fill="none" id="id31" stroke="none" /><text fill="#e1ed5e" style="font-size:6.75px; font-family:Arial;" text-anchor="middle"><textPath startOffset="22.20632615414155" xlink:href="#id31">July</textPath></text><path d="M 100.54218724476979 120.99299961872073 l 0.04888038607071125 1.8926043281985565 a22.893235441052784,22.893235441052784 0 0,0 -0.3940256246273468,0.006783508461214204 l -0.01629507155069649 -1.8931653139389304" fill="#ff0600" stroke="none" /><path d="M 100.18074693466247 120.99922214144158 l 0.06355289995846082 7.38359113227989 a28.383864637151426,28.383864637151426 0 0,0 -0.48859966924182746,0.0 l 0.06355289995845574 -7.38359113227989" fill="#ff5407" stroke="none" /><path d="M 99.81925306533755 120.99922214144158 l -0.08906224918860402 10.347273432994376 a31.347656719343842,31.347656719343842 0 0,0 -0.5395384174179919,-0.009288643151486687 l 0.26716035649926384 -10.34420731256373" fill="#ff7d0b" stroke="none" /><path d="M 98.73552117531835 120.96189622390904 l -0.5168790210274097 8.568561361096792 a29.584136981739,29.584136981739 0 0,0 -0.5080543564682053,-0.03503840299013523 l 0.6642961382745449 -8.558394613590371" fill="#ff6509" stroke="none" /><path d="M 98.37488393609728 120.93702456842531 l -0.575380452207207 7.412858030043507 a28.435154795857493,28.435154795857493 0 0,0 -0.4876705988393775,-0.04207827127872484 l 0.7028953687881262 -7.401855506486118" fill="#ff5507" stroke="none" /><path d="M 98.01472825383883 120.90594882070398 l -1.2312128370439883 12.965314500852049 a34.02364254562088,34.02364254562088 0 0,0 -0.5825615621023029,-0.06038488786241613 l 1.4542069957518846 -12.942200244533872" fill="#ffa10e" stroke="none" /><path d="M 97.65516085044442 120.86867818915974 l -1.6625442185406505 14.796366854651268 a35.88947700142707,35.88947700142707 0 0,0 -0.6133213855638109,-0.07426467844860833 l 1.9169930271558506 -14.765556647477311" fill="#ffb911" stroke="none" /><path d="M 96.93821686468263 120.77559828337769 l -2.5390651744605974 17.228717955701953 a38.41480905313881,38.41480905313881 0 0,0 -0.6533520047670496,-0.10204014628199086 l 2.8352530428361638 -17.182459502072856" fill="#ffda14" stroke="none" /><path d="M 96.58105272829116 120.7198165907248 l -1.0139270812359733 6.1446935240618545 a27.22778505013712,27.22778505013712 0 0,0 -0.4617716023878227,-0.08028491209661845 l 1.1195476550958459 -6.12633003344423" fill="#ff4406" stroke="none" /><path d="M 96.22490169976321 120.6578951692458 l -3.1866040096427777 17.437567539094204 a38.72634217188485,38.72634217188485 0 0,0 -0.6547193161998592,-0.12547851519480546 l 3.486290940414332 -17.38013182555093" fill="#ffde14" stroke="none" /><path d="M 95.86986931433489 120.58985236759428 l -1.0843560249308875 5.405816950231185 a26.51350023925008,26.51350023925008 0 0,0 -0.4467001320019369,-0.09361035584503871 l 1.1772476183622111 -5.386350613659605" fill="#ff3a05" stroke="none" /><path d="M 95.16358092515715 120.4354850818985 l -4.012795423953841 16.95540021530988 a38.42378040425886,38.42378040425886 0 0,0 -0.6423115189839651,-0.1578645440046423 l 4.304060227681016 -16.883814412991207" fill="#ffda14" stroke="none" /><path d="M 94.81253420990036 120.34920634021253 l -3.55967262639806 13.963757200370672 a35.410336025160255,35.410336025160255 0 0,0 -0.5893452792404824,-0.15565144472330084 l 3.799508348450032 -13.90041440634379" fill="#ffb310" stroke="none" /><path d="M 94.46302465271185 120.25689768951611 l -5.812264600004931 21.264037125316268 a43.0440852531308,43.0440852531308 0 0,0 -0.7130331265243822,-0.2015102838511832 l 6.177428894633927 -21.16083804812656" fill="#ebff1a" stroke="none" /><path d="M 93.42475214034765 119.94407469862007 l -3.2741680207768744 9.93122281867251 a31.457024572142856,31.457024572142856 0 0,0 -0.5127948391800912,-0.1739678511848105 l 3.4446325928941914 -9.873391980589576" fill="#ff7f0b" stroke="none" /><path d="M 93.08242187328487 119.8279376855182 l -2.2828639208894055 6.54340041250927 a27.93019167409712,27.93019167409712 0 0,0 -0.4525760902170342,-0.16227768406580415 l 2.3951595717361664 -6.503135187403509" fill="#ff4e07" stroke="none" /><path d="M 92.7421414339146 119.70592522655815 l -5.240764255024134 14.229280937231911 a36.163708186568684,36.163708186568684 0 0,0 -0.582286984076858,-0.22017111306123238 l 5.484921459861275 -14.136961574064046" fill="#ffbd11" stroke="none" /><path d="M 91.40352486487194 119.15986991738527 l -2.594465396088115 5.782558398973985 a27.337920189545088,27.337920189545088 0 0,0 -0.4276848434010274,-0.19632913498850246 l 2.693618235256562 -5.737042193651408" fill="#ff4606" stroke="none" /><path d="M 90.7491055286396 118.85261126421891 l -0.7611138769509789 1.5510915289739826 a22.727767132730044,22.727767132730044 0 0,0 -0.349732816001805,-0.17536329427746902 l 0.7877006006355444 -1.5377603937872115" fill="#ff0300" stroke="none" /><path d="M 90.42595943632237 118.69057910512821 l -3.000188542212104 5.857011039963122 a27.580707379231406,27.580707379231406 0 0,0 -0.42068340420583017,-0.22008167435493067 l 3.10056284894443 -5.804499946663474" fill="#ff4906" stroke="none" /><line stroke="#e1ed5e" stroke-width="0.3" x1="58.666819895761336" x2="56.23545636021788" y1="174.27360380694188" y2="178.64263932499728" /><path d="M 58.180547188652646 175.14741091055294 a86.0,86.0 0 0,1 -31.652253787137756,-30.449443065178592" fill="none" id="id32" stroke="none" /><text fill="#e1ed5e" style="font-size:6.75px; font-family:Arial;" text-anchor="middle"><textPath startOffset="22.20632615414155" xlink:href="#id32">August</textPath></text><path d="M 89.7882731507175 118.34994917583269 l -3.4313469245961183 6.165954358190917 a28.05642507678136,28.05642507678136 0 0,0 -0.41997961041280873,-0.2384753835869305 l 3.5369753019301347 -6.105975808809354" fill="#ff5007" stroke="none" /><path d="M 89.4739219176387 118.17145234162733 l -4.219204462385903 7.28372639913268 a29.41750298799112,29.41750298799112 0 0,0 -0.4359843849514956,-0.25758725947546174 l 4.3439567183657815 -7.210020567363469" fill="#ff6309" stroke="none" /><path d="M 87.95078237400918 117.19931262002967 l -7.6015721197468595 10.850647680992225 a34.24841325550855,34.24841325550855 0 0,0 -0.4799224802682944,-0.3424119469392668 l 7.787221927864039 -10.718191472208742" fill="#ffa40f" stroke="none" /><path d="M 87.65650970185807 116.9893568818739 l -4.704890135043393 6.475725719676906 a29.004437193164403,29.004437193164403 0 0,0 -0.40138692251830316,-0.29693644947297926 l 4.81566202798026 -6.393779321464158" fill="#ff5d08" stroke="none" /><path d="M 87.07902340077011 116.55440617244103 l -9.08928886394195 11.645232735837348 a35.77249530458538,35.77249530458538 0 0,0 -0.4821493696555419,-0.3830486193053312 l 9.288395726314851 -11.487050202526888" fill="#ffb811" stroke="none" /><path d="M 86.79598089348748 116.32954008644616 l -6.603211017617338 8.166255905996254 a31.50191083876652,31.50191083876652 0 0,0 -0.41872020585817016,-0.3445782230947883 l 6.742801352020197 -8.051382564044285" fill="#ff7f0b" stroke="none" /><path d="M 86.24171649860922 115.8653595955263 l -6.788603895337153 7.828276102918441 a31.361807255074314,31.361807255074314 0 0,0 -0.4048027468170262,-0.3571913584577006 l 6.922348995060767 -7.710261602688451" fill="#ff7d0b" stroke="none" /><path d="M 85.97065885151581 115.62618273729859 l -4.340627366832799 4.834684374039686 a27.497323982554768,27.497323982554768 0 0,0 -0.3494784837809365,-0.31924030887900995 l 4.423205400080593 -4.759251298574098" fill="#ff4806" stroke="none" /><path d="M 85.44109423537348 115.13401014063109 l -4.395301178142893 4.568923906545303 a27.339853161579178,27.339853161579178 0 0,0 -0.33634535077775113,-0.3291847170484424 l 4.473296481296439 -4.492589086574289" fill="#ff4606" stroke="none" /><path d="M 84.67929136418377 114.36230785411682 l -14.308734512754883 13.413638687350657 a40.612893366132724,40.612893366132724 0 0,0 -0.47372733865336386,-0.5141374638225378 l 14.537508259403976 -13.165349968726778" fill="#fff517" stroke="none" /><path d="M 84.19399662182784 113.82643327865904 l -17.147517420188958 14.99993387527059 a43.782347770547574,43.782347770547574 0 0,0 -0.4913161047955548,-0.5715116274467241 l 17.40317603455529 -14.702545148662336" fill="#e2ff1b" stroke="none" /><path d="M 83.95833913139862 113.55231037782056 l -6.7011158759444776 5.661234392898518 a29.772373044631205,29.772373044631205 0 0,0 -0.3273600013651047,-0.39432621006542223 l 6.797571877203119 -5.545046925719334" fill="#ff6809" stroke="none" /><path d="M 82.85270091963577 112.12312394758628 l -7.4746333066149795 5.284558554333287 a30.154053866049463,30.154053866049463 0 0,0 -0.2959966337776979,-0.4264052274289025 l 7.56449084755481 -5.1551120647173745" fill="#ff6d0a" stroke="none" /><path d="M 82.64656182679789 111.8261652097733 l -3.9636082564619937 2.701152682246348 a25.796500414208293,25.796500414208293 0 0,0 -0.24690554640602924,-0.3690902912925611 l 4.009516908278756 -2.6325254767479636" fill="#ff3004" stroke="none" /><path d="M 82.44556493220864 111.52570212397912 l -16.840945440918635 11.05724678057861 a41.14646742509997,41.14646742509997 0 0,0 -0.3836322957642566,-0.5954058423820774 l 17.028782600059937 -10.765719338275085" fill="#fffc17" stroke="none" /><path d="M 82.24976979558568 111.22182372390057 l -22.67428315427579 14.334845559344487 a47.825564556417696,47.825564556417696 0 0,0 -0.4339267226590706,-0.6996280422028051 l 22.91767451660282 -13.942421185776418" fill="#b3ff20" stroke="none" /><path d="M 82.05923443525364 110.91462005526583 l -10.130540867892982 6.163115176348275 a32.85798663150639,32.85798663150639 0 0,0 -0.2898060719146104,-0.4857316461429999 l 10.235127815505825 -5.987821436319163" fill="#ff910d" stroke="none" /><line stroke="#e1ed5e" stroke-width="0.3" x1="26.63291911575756" x2="22.317208475507996" y1="142.92168965132927" y2="145.44649492493687" /><path d="M 25.769776987707644 143.4266507060508 a86.0,86.0 0 0,1 -11.730757126820373,-40.83630448921669" fill="none" id="id33" stroke="none" /><text fill="#e1ed5e" style="font-size:6.75px; font-family:Arial;" text-anchor="middle"><textPath startOffset="21.46611528233685" xlink:href="#id33">September</textPath></text><path d="M 81.87401531095188 110.60418214915194 l -13.616499688141047 7.966013731334606 a36.775501213113856,36.775501213113856 0 0,0 -0.31495240398449725,-0.5491460637641077 l 13.751604088277919 -7.7304478217121915" fill="#ffc512" stroke="none" /><path d="M 81.69416730710424 110.29060199501025 l -7.481251501021806 4.205576600263906 a29.582307298286885,29.582307298286885 0 0,0 -0.24570725027027315,-0.44603002973585176 l 7.552535160743598 -4.076176052130232" fill="#ff6509" stroke="none" /><path d="M 81.51974371655577 109.97397251340807 l -7.409894602006027 3.9991915671574643 a29.420218002145873,29.420218002145873 0 0,0 -0.23668914471140945,-0.44772666316088894 l 7.477636254942323 -3.871049888910449" fill="#ff6309" stroke="none" /><path d="M 81.35079622478065 109.6543875284942 l -19.674466617805944 10.18514931973212 a43.15450074726127,43.15450074726127 0 0,0 -0.33582694842033256,-0.6626184291441752 l 19.84687223601254 -9.844976678885258" fill="#eaff1a" stroke="none" /><path d="M 81.18737489456691 109.33194174019688 l -10.609962230546087 5.263037393571985 a32.84360000758855,32.84360000758855 0 0,0 -0.24686930010698305,-0.5086238784917377 l 10.698984787267788 -5.079624559114964" fill="#ff910d" stroke="none" /><path d="M 81.02952815118164 109.00673069616217 l -11.840174641423427 5.621434471461063 a34.106878387180416,34.106878387180416 0 0,0 -0.24723488718504633,-0.5325219519484733 l 11.9351841454483 -5.416792452233762" fill="#ffa20f" stroke="none" /><path d="M 80.87730276802145 108.67885076344099 l -10.790305633868241 4.897188464169903 a32.849605500854764,32.849605500854764 0 0,0 -0.22925726424812645,-0.5169146087293403 l 10.87300398284765 -4.710725518947867" fill="#ff910d" stroke="none" /><path d="M 80.73074385275274 108.34839909993369 l -11.998982430647581 5.198555323499018 a34.07671812124393,34.07671812124393 0 0,0 -0.2285558243601692,-0.5402384544883684 l 12.086689236200057 -4.99124234334449" fill="#ffa20e" stroke="none" /><path d="M 80.58989483394504 108.01547362559985 l -12.823080064972164 5.29533761823661 a34.87342722054642,34.87342722054642 0 0,0 -0.22434804044671772,-0.5568134377398635 l 12.91233071967627 -5.073824812653942" fill="#ffac0f" stroke="none" /><path d="M 80.45479744820244 107.68017299344265 l -29.193812657648277 11.471537885304429 a52.36677986252079,52.36677986252079 0 0,0 -0.3224440093091071,-0.8417995601153802 l 29.386950946550893 -10.96731475835589" fill="#81ff25" stroke="none" /><path d="M 80.32549172779595 107.34259656027581 l -4.439906648049269 1.6569889743048796 a25.73902769609548,25.73902769609548 0 0,0 -0.15134026027535455,-0.41642339822233354 l 4.467771169329845 -1.580317779076429" fill="#ff2f04" stroke="none" /><path d="M 80.20201598880116 107.00284435728193 l -4.2027402625886445 1.4865723659713324 a25.457905686985008,25.457905686985008 0 0,0 -0.14257538732247454,-0.41439081361855723 l 4.227706480854347 -1.4140088492634781" fill="#ff2b04" stroke="none" /><path d="M 80.0844068197444 106.66101706037122 l -23.440613025636054 7.840003652219501 a45.7169576664369,45.7169576664369 0 0,0 -0.24318754434776618,-0.7484543016852 l 23.57209282100007 -7.435350450556498" fill="#ccff1d" stroke="none" /><path d="M 79.97269907076064 106.31721596034903 l -17.45421231100003 5.505586048561847 a39.30193992820389,39.30193992820389 0 0,0 -0.19795681109410995,-0.6469343123599901 l 17.546395894600273 -5.204324763649809" fill="#ffe515" stroke="none" /><path d="M 79.86692584326677 105.97154293290107 l -19.123391003337964 5.672067241698185 a40.946840107167176,40.946840107167176 0 0,0 -0.19460933994965104,-0.6774606427116107 l 19.21819298017372 -5.342049123481979" fill="#fff917" stroke="none" /><path d="M 79.67330655649465 105.27499134158121 l -15.467200936636235 4.013901781222653 a36.979540429048114,36.979540429048114 0 0,0 -0.1545897739161331,-0.6175093019212287 l 15.53400202484743 -3.7470646399040324" fill="#ffc712" stroke="none" /><path d="M 79.58551787078972 104.9243191809786 l -10.035864912717006 2.4208207572745444 a31.323708523837528,31.323708523837528 0 0,0 -0.12192296227117738,-0.5252409304438485 l 10.076048440918738 -2.247711169482122" fill="#ff7d0b" stroke="none" /><path d="M 79.50377843672027 104.57218783832718 l -12.238813377527725 2.7301692415611263 a33.53963225048957,33.53963225048957 0 0,0 -0.12084802452676388,-0.5645617382100958 l 12.28399544077893 -2.5190936839348668" fill="#ff9b0e" stroke="none" /><path d="M 79.4281124754447 104.21870165774334 l -9.1084276577123 1.867876188471278 a30.29797912727472,30.29797912727472 0 0,0 -0.1003729732660172,-0.5117996282372539 l 9.139230563953982 -1.7108128331660692" fill="#ff6f0a" stroke="none" /><path d="M 79.29508885075956 103.50808413554451 l -8.815012298814999 1.4935492636121301 a29.94064490017896,29.94064490017896 0 0,0 -0.08172120185570594,-0.508878001964468 l 8.839415255031996 -1.3415920319544483" fill="#ff6a09" stroke="none" /><path d="M 79.23777060512086 103.15116336523772 l -14.842457743448575 2.252696866107252 a36.012434680511554,36.012434680511554 0 0,0 -0.08774335217291022,-0.613676800734815 l 14.879035146638085 -1.9968745933920362" fill="#ffbb11" stroke="none" /><path d="M 79.10278846688536 102.07522291339032 l -6.892585036533999 0.6844765091093793 a27.92648804065776,27.92648804065776 0 0,0 -0.04338633080428032,-0.4787645451006038 l 6.903345963615355 -0.5657305754602093" fill="#ff4e07" stroke="none" /><path d="M 79.07016306316243 101.71520430193888 l -7.893147568757758 0.6468450139687196 a28.919607756340127,28.919607756340127 0 0,0 -0.03638835995238504,-0.49649026086367903 l 7.903112487374479 -0.51088161660828" fill="#ff5c08" stroke="none" /><path d="M 79.04373962182676 101.35467743843564 l -14.748426347399953 0.9533838607035906 a35.7792090624137,35.7792090624137 0 0,0 -0.0344394465480609,-0.6149394532272635 l 14.762652144835545 -0.6993726911408896" fill="#ffb811" stroke="none" /><path d="M 79.0095281055655 100.63252640178507 l -41.31469548530506 1.2449760923714643 a62.33344926949677,62.33344926949677 0 0,0 -0.023086936240257795,-1.0727592087107374 l 41.33000448423032 -0.533627067870598" fill="#32ff48" stroke="none" /><line stroke="#e1ed5e" stroke-width="0.3" x1="15.007084014347285" x2="10.007500721073583" y1="101.09737516637583" y2="101.16192664675087" /><path d="M 14.007167355692545 101.11028546245083 a86.0,86.0 0 0,1 10.666146001902534,-42.60595125391555" fill="none" id="id34" stroke="none" /><text fill="#e1ed5e" style="font-size:6.75px; font-family:Arial;" text-anchor="middle"><textPath startOffset="22.20632615414155" xlink:href="#id34">October</textPath></text><path d="M 79.00175016825051 100.2711162175752 l -1.9930084080227257 0.02573247320649114 a22.99317452186872,22.99317452186872 0 0,0 -0.0017033592346000679,-0.39580069788877525 l 1.993156064546829 0.008577702885959507" fill="#ff0701" stroke="none" /><path d="M 79.00019446554 99.90962569577889 l -4.80207779525102 -0.02066611706710083 a25.802122264170034,25.802122264170034 0 0,0 0.005734205759748316,-0.4441205554089575 l 4.801010582373557 0.10332293053653031" fill="#ff3004" stroke="none" /><path d="M 79.01574976396665 99.18683210126434 l -9.9785244846561 -0.38668123456403763 a30.986013882828587,30.986013882828587 0 0,0 0.02524089965532908,-0.5327954982435549 l 9.970389976767272 0.5583878394306016" fill="#ff780b" stroke="none" /><path d="M 79.03285615573316 98.82574320788736 l -11.49030485582149 -0.6435100851412638 a32.50831051498844,32.50831051498844 0 0,0 0.036098789935931,-0.5584323026062183 l 11.477525474881146 0.841201452000494" fill="#ff8d0d" stroke="none" /><path d="M 79.08570108090925 98.10471618934814 l -12.630855365799764 -1.1446262569974848 a33.68261315896534,33.68261315896534 0 0,0 0.05729713126532521,-0.576974292528418 l 12.60928110885221 1.3618760802303331" fill="#ff9c0e" stroke="none" /><path d="M 79.16333360222342 97.38593545837743 l -6.401300358114766 -0.8030753080641151 a27.451478607669912,27.451478607669912 0 0,0 0.06285604396357398,-0.46835053658726244 l 6.386528315093359 0.9131441867160369" fill="#ff4706" stroke="none" /><path d="M 79.21141760316559 97.0276538004421 l -9.620567802942709 -1.3755463263825194 a30.71840792244503,30.71840792244503 0 0,0 0.07934726632000434,-0.5227993455896974 l 9.595464643183403 1.5409447843643087" fill="#ff750a" stroke="none" /><path d="M 79.54389044137918 95.25157060432595 l -61.3683286758625 -14.245288187022146 a84.0,84.0 0 0,0 0.3390687989567409,-1.4056590733624128 l 61.114027076644945 15.299532492043955" fill="#4dd2ff" stroke="none" /><path d="M 79.71946130924805 94.55025226153421 l -4.883171281283048 -1.3121964880966712 a26.056403997478917,26.056403997478917 0 0,0 0.1201240294487391,-0.43215004694625647 l 4.8598604812679485 1.3960578384618703" fill="#ff3304" stroke="none" /><path d="M 79.81627453868168 94.20196356495316 l -10.824807788461502 -3.1095661740030063 a32.26258697847171,32.26258697847171 0 0,0 0.15792398501464402,-0.5324411692510505 l 10.769677906335152 3.295436730000596" fill="#ff890c" stroke="none" /><path d="M 79.91906864156998 93.8553929516997 l -16.77133799899721 -5.13189751205454 a38.53893241764844,38.53893241764844 0 0,0 0.199566550564146,-0.6326805017660933 l 16.68051596466486 5.419828180247047" fill="#ffdb14" stroke="none" /><path d="M 80.02781315780177 93.51064311812611 l -10.540486964153564 -3.4248118225396826 a32.082923867883366,32.082923867883366 0 0,0 0.17517689878122392,-0.523756630419325 l 10.479972771600568 3.6057415558813295" fill="#ff870c" stroke="none" /><path d="M 80.14247586403 93.16781622104843 l -11.904158744172687 -4.09574727025899 a33.589048459208385,33.589048459208385 0 0,0 0.19281220525178971,-0.5451060686176096 l 11.831893458111088 4.30005096530321" fill="#ff9b0e" stroke="none" /><path d="M 80.2630227832202 92.82701384747504 l -12.354899494363563 -4.490126426936542 a34.145523072350485,34.145523072350485 0 0,0 0.205516068550329,-0.5506808875540907 l 12.275778837311607 4.702130451519974" fill="#ffa30f" stroke="none" /><path d="M 80.52162464483688 92.15188598940014 l -10.597301429371155 -4.269803220541804 a32.42514845098746,32.42514845098746 0 0,0 0.21304606122532396,-0.5159079359191111 l 10.522233681259632 4.451585726914226" fill="#ff8c0c" stroke="none" /><path d="M 80.65960295795068 91.81776055985345 l -17.746699849667436 -7.5080024017441405 a40.26954736413863,40.26954736413863 0 0,0 0.27557657460270996,-0.6360687289426304 l 17.61483256522205 7.812370275273371" fill="#fff116" stroke="none" /><path d="M 80.95270993114464 91.15688171328213 l -13.399553230373723 -6.221033741651222 a35.77326259119433,35.77326259119433 0 0,0 0.26411196401486065,-0.5562871531636827 l 13.29048307251711 6.450763310455437" fill="#ffb811" stroke="none" /><path d="M 81.10775173730289 90.83032412892265 l -6.887906286371317 -3.3431631427949546 a28.656369427422906,28.656369427422906 0 0,0 0.21920756255349683,-0.44190906988106726 l 6.829338710864407 3.4612318011749834" fill="#ff5808" stroke="none" /><path d="M 81.26839172434947 90.50648371742162 l -10.595265946730986 -5.369871518949732 a32.878349237667024,32.878349237667024 0 0,0 0.2601938807889341,-0.5026117596353438 l 10.501262632781938 5.551456000845411" fill="#ff920d" stroke="none" /><path d="M 81.43458229118936 90.18545643968196 l -6.138028063129759 -3.244847207044118 a27.942940436215082,27.942940436215082 0 0,0 0.22845602651994246,-0.4232943206841918 l 6.081263937391345 3.3500225110607826" fill="#ff4e07" stroke="none" /><path d="M 81.6062741919709 89.86733742301443 l -2.6473864129778764 -1.4583817065431892 a24.02250426328892,24.02250426328892 0 0,0 0.20263824129817598,-0.3604708202868704 l 2.621890530387272 1.503736036764844" fill="#ff1602" stroke="none" /><line stroke="#e1ed5e" stroke-width="0.3" x1="26.266209847984257" x2="21.92892807433627" y1="57.711370442889674" y2="55.22380399835377" /><path d="M 25.39875349325466 57.213857153982495 a86.0,86.0 0 0,1 29.58750427330802,-30.492523968695096" fill="none" id="id35" stroke="none" /><text fill="#e1ed5e" style="font-size:6.75px; font-family:Arial;" text-anchor="middle"><textPath startOffset="21.46611528233685" xlink:href="#id35">November</textPath></text><path d="M 81.78341655067847 89.55222093294921 l -10.344511976959394 -5.9329004251759265 a32.92510945427794,32.92510945427794 0 0,0 0.2861981046611465,-0.4892053333445826 l 10.240854197827922 6.110085170874401" fill="#ff920d" stroke="none" /><path d="M 81.96595687620814 89.24020034530311 l -12.028790408151519 -7.176836275238785 a35.0070974011328,35.0070974011328 0 0,0 0.3132038356918288,-0.5148247544737466 l 11.90347077417347 7.382828802919606" fill="#ffae10" stroke="none" /><path d="M 82.15384107792192 88.93136811851018 l -8.463676580518133 -5.249382841584215 a30.959409695214365,30.959409695214365 0 0,0 0.2847858852205051,-0.4504628789405748 l 8.372063099051665 5.394293368239006" fill="#ff780b" stroke="none" /><path d="M 82.34701348167596 88.62581576622439 l -11.265462157057277 -7.25857020963508 a34.401398400924116,34.401398400924116 0 0,0 0.3250168186255241,-0.49502291288889716 l 11.138848703073833 7.451411186501644" fill="#ffa60f" stroke="none" /><path d="M 82.7489923806493 88.02491185347247 l -6.22140622325875 -4.3186977574172865 a28.5734434516093,28.5734434516093 0 0,0 0.2839484312903989,-0.4016249191039678 l 6.146145172164473 4.42514917685304" fill="#ff5708" stroke="none" /><path d="M 82.95767976084542 87.72973835380427 l -7.598110329453456 -5.470546290103117 a30.362593513055465,30.362593513055465 0 0,0 0.3090295911805261,-0.42151601507579695 l 7.5028181257592985 5.600524748850415" fill="#ff700a" stroke="none" /><path d="M 83.17141714833178 87.43820079747576 l -6.911581655217087 -5.159192648006037 a29.62480317201343,29.62480317201343 0 0,0 0.3085551057068765,-0.40602235068731046 l 6.821750609286099 5.277399774574374" fill="#ff6609" stroke="none" /><path d="M 83.39014120810768 87.1503855733568 l -4.737005864786966 -3.664612665399153 a26.989040870659508,26.989040870659508 0 0,0 0.28742804092407326,-0.36500442319901716 l 4.673223743268922 3.745609482551218" fill="#ff4106" stroke="none" /><path d="M 83.6137871275137 86.86637796730984 l -9.925308486369293 -7.955178614620757 a33.71992984808146,33.71992984808146 0 0,0 0.3669073722554702,-0.4497850547691692 l 9.786902622037429 8.12484783899801" fill="#ff9d0e" stroke="none" /><path d="M 84.31358615837235 86.03803664274997 l -10.271591686676889 -9.142407448759235 a34.750971228860095,34.750971228860095 0 0,0 0.40154972206913125,-0.4434012324023254 l 10.112698323991713 9.317861468431119" fill="#ffab0f" stroke="none" /><path d="M 84.80347519578584 85.50635884689758 l -3.2044212314381517 -3.056207391506232 a25.428173330888136,25.428173330888136 0 0,0 0.3048180921969454,-0.3141418382757074 l 3.151338875538088 3.110913425332063" fill="#ff2a04" stroke="none" /><path d="M 85.57189188830299 84.74124197986013 l -8.699046288305038 -9.19986468715406 a33.66139473312549,33.66139473312549 0 0,0 0.4244415212286182,-0.3944721366739618 l 8.539396883281563 9.348241409902668" fill="#ff9c0e" stroke="none" /><path d="M 85.83668400450813 84.49514656593479 l -7.396626248521704 -8.097228496941819 a31.96700456788484,31.96700456788484 0 0,0 0.4094653803919245,-0.36762206142005627 l 7.256149880533808 8.223349567131153" fill="#ff850c" stroke="none" /><path d="M 86.10567301691215 84.25364557470407 l -6.988562464118896 -7.920094410998211 a31.562570747408827,31.562570747408827 0 0,0 0.41047303817939484,-0.3559581738406841 l 6.851195627292728 8.039217578258576" fill="#ff800b" stroke="none" /><path d="M 86.37877921826538 84.01681056812374 l -9.475688441080925 -11.118806880681788 a35.6087829021562,35.6087829021562 0 0,0 0.4699383713996137,-0.393559871343117 l 9.2828925327222 11.280267909418718" fill="#ffb610" stroke="none" /><path d="M 86.65592168130627 83.78471172551755 l -8.07250931921289 -9.809449748665507 a33.70396438441059,33.70396438441059 0 0,0 0.45114618301718734,-0.36479550488587154 l 7.902459737631201 9.946951350815512" fill="#ff9d0e" stroke="none" /><path d="M 87.22198572758235 83.33499621200491 l -6.864830253730985 -8.95306733451666 a32.281990476371156,32.281990476371156 0 0,0 0.4438832816374856,-0.33432368506384424 l 6.70970081833511 9.069907609086359" fill="#ff8a0c" stroke="none" /><path d="M 87.51073957382395 83.11751280151077 l -7.815685429581051 -10.564933767877301 a34.1416423727706,34.1416423727706 0 0,0 0.4754706294900413,-0.34544963314199867 l 7.632669483737226 10.697902635835968" fill="#ffa20f" stroke="none" /><path d="M 87.80319425747017 82.90503203632743 l -4.075474560209023 -5.712160094556447 a28.016998349490617,28.016998349490617 0 0,0 0.3949981320771535,-0.2767214341877123 l 3.9765452885482118 5.781466371508102" fill="#ff4f07" stroke="none" /><path d="M 88.39885842347998 82.49532879139004 l -6.634257870348997 -10.010265107757403 a33.00911258244642,33.00911258244642 0 0,0 0.47632616962285945,-0.3098157905971057 l 6.460964674941851 10.122979822514043" fill="#ff930d" stroke="none" /><path d="M 88.70189139769569 82.29822771554957 l -4.885164165555304 -7.654030127943716 a30.080143507891037,30.080143507891037 0 0,0 0.4388561840339167,-0.27481170218129614 l 4.752688829149146 7.736986171447942" fill="#ff6c09" stroke="none" /><path d="M 89.00827224532344 82.1063720568725 l -7.839716515536197 -12.762413120076822 a35.977995316179,35.977995316179 0 0,0 0.5304834348253695,-0.3196103338626242 l 7.618871014493179 12.895470063398065" fill="#ffbb11" stroke="none" /><line stroke="#e1ed5e" stroke-width="0.3" x1="56.762969772571076" x2="54.21961505331055" y1="26.818313649435495" y2="22.513508569990535" /><path d="M 56.25429882871897 25.957352633546506 a86.0,86.0 0 0,1 42.265352541879196,-11.944610805530505" fill="none" id="id36" stroke="none" /><text fill="#e1ed5e" style="font-size:6.75px; font-family:Arial;" text-anchor="middle"><textPath startOffset="22.20632615414155" xlink:href="#id36">December</textPath></text><path d="M 89.63071344664047 81.73862282372117 l -12.428998996585326 -21.88874204915284 a46.17135364956503,46.17135364956503 0 0,0 0.6944961139444352,-0.3864863354950909 l 12.050378793568848 22.099443782208112" fill="#c6ff1e" stroke="none" /><path d="M 90.26544431104013 81.39251694778311 l -2.285949628294757 -4.369564500509945 a25.931395302266658,25.931395302266658 0 0,0 0.3972930705092523,-0.2035089416614159 l 2.210396070196741 4.408265967483866" fill="#ff3204" stroke="none" /><path d="M 90.58718382345135 81.22770947309562 l -3.0852765848646704 -6.15306910499674 a27.88325439134568,27.88325439134568 0 0,0 0.43090081996425666,-0.21144116097474838 l 2.978904497889988 6.205265426106315" fill="#ff4d07" stroke="none" /><path d="M 91.23893434514133 80.91482961587045 l -5.190326752116166 -11.306646282065866 a33.441050676751004,33.441050676751004 0 0,0 0.5252122138310122,-0.2356474107774105 l 4.9949324198183795 11.394314023359806" fill="#ff990e" stroke="none" /><path d="M 91.56875222667455 80.76684994638697 l -2.148053286105593 -4.900085050937892 a26.350230502172224,26.350230502172224 0 0,0 0.41698140865909866,-0.17852967781611687 l 2.063388119656186 4.936334256716795" fill="#ff3805" stroke="none" /><path d="M 92.23578459929587 80.48803036053334 l -3.8316527414578245 -9.629188282633685 a31.363533649944458,31.363533649944458 0 0,0 0.5033351831014473,-0.19528623126211622 l 3.6653343933566997 9.693717217786352" fill="#ff7d0b" stroke="none" /><path d="M 93.25333710446033 80.11325718540243 l -2.8867406340988397 -8.509076183534418 a29.98541312270894,29.98541312270894 0 0,0 0.49021463843732654,-0.16161605894799005 l 2.739843173419104 8.55750596674164" fill="#ff6a09" stroke="none" /><path d="M 94.28887869178378 79.79150937346287 l -1.7786295905912384 -6.2935836011459045 a27.540085455492108,27.540085455492108 0 0,0 0.45729932996615036,-0.12499718146201749 l 1.6700323714013656 6.3232673234342185" fill="#ff4806" stroke="none" /><path d="M 94.63758080256005 79.69619591428918 l -3.3931916891663776 -12.847689959596414 a34.288223626103765,34.288223626103765 0 0,0 0.5719457123335785,-0.14580169697633635 l 3.1715370881478 12.904194652741614" fill="#ffa40f" stroke="none" /><path d="M 95.33964822691252 79.52364482259891 l -2.4917314865435527 -10.948010238157963 a32.22798530351034,32.22798530351034 0 0,0 0.5419784521813368,-0.11845549757122532 l 2.302910310208695 10.989279233825057" fill="#ff890c" stroke="none" /><path d="M 95.692805502759 79.44645832069477 l -1.5417954792252535 -7.357308257966849 a28.517121663409913,28.517121663409913 0 0,0 0.4813059915630897,-0.09654545401587232 l 1.4149230781950275 7.3827576680599325" fill="#ff5608" stroke="none" /><path d="M 96.04723909329186 79.375362276772 l -1.307591173167307 -6.822723375678661 a27.946894913353525,27.946894913353525 0 0,0 0.4732405800577737,-0.08648169112789704 l 1.18995547200664 6.844220548157295" fill="#ff4e07" stroke="none" /><path d="M 96.75951476605007 79.25152402106235 l -1.6365395688811235 -10.478585607415773 a31.605612575068665,31.605612575068665 0 0,0 0.5382451166380441,-0.07932333877036002 l 1.4559254718144308 10.505203430347102" fill="#ff810b" stroke="none" /><path d="M 97.11714578562143 79.19881850522333 l -2.2399735335674107 -16.16248778132398 a37.316969470846274,37.316969470846274 0 0,0 0.6370278062866814,-0.08270449207647161 l 1.9614309987728715 16.198650596564587" fill="#ffcc13" stroke="none" /><path d="M 97.47563105711357 79.15227682838746 l -1.272579423224158 -10.509709210307468 a31.586474676380007,31.586474676380007 0 0,0 0.5403292105953716,-0.06071228254938881 l 1.0914835091190684 10.530057446327456" fill="#ff800b" stroke="none" /><path d="M 98.19473922651362 79.07773832637324 l -0.930837645787724 -10.788041864567989 a31.82812569166461,31.82812569166461 0 0,0 0.5462461311183175,-0.042399212916999426 l 0.7450013253070723 10.80246633967345" fill="#ff840c" stroke="none" /></svg>