<?xml version="1.0" encoding="utf-8" ?>
<svg baseProfile="full" height="200mm" version="1.1" viewBox="0,0,200,200" width="200mm" xmlns="http://www.w3.org/2000/svg" xmlns:ev="http://www.w3.org/2001/xml-events" xmlns:xlink="http://www.w3.org/1999/xlink"><defs /><rect fill="#1a1a1a" height="200" width="200" x="0" y="0" /><text alignment-baseline="middle" fill="#e1ed5e" style="dominant-baseline: central; font-size:9.0px; font-family:Arial;" text-anchor="middle" x="100.0" y="100.0">2025</text><line stroke="#e1ed5e" stroke-width="0.3" x1="100.0" x2="100.0" y1="15.0" y2="10.0" /><path d="M 100.0 14.0 a86.0,86.0 0 0,1 42.46469731375804,11.215312516191453" fill="none" id="id49" stroke="none" /><text fill="#e1ed5e" style="font-size:6.75px; font-family:Arial;" text-anchor="middle"><textPath startOffset="22.20632615414155" xlink:href="#id49">January</textPath></text><path d="M 100.0 79.0 l 0.0 -40.87758350535976 a61.87758350535976,61.87758350535976 0 0,0 1.065120882940159,0.009167831710129736 l -0.7036404036676308 40.87152705025819" fill="red" stroke="none" /><line stroke="#e1ed5e" stroke-width="0.3" x1="143.23703022742887" x2="145.7803849466894" y1="26.81831364943548" y2="22.513508569990506" /><path d="M 143.74570117128098 25.957352633546492 a86.0,86.0 0 0,1 28.547481713284135,27.462654790039103" fill="none" id="id50" stroke="none" /><text fill="#e1ed5e" style="font-size:6.75px; font-family:Arial;" text-anchor="middle"><textPath startOffset="19.985693538727396" xlink:href="#id50">February</textPath></text><path d="M 116.82858285166822 87.43820079747576 l 6.547093881273497 -4.8871185067422385 a29.169967294252245,29.169967294252245 0 0,0 0.29689107631125894,0.4049590944356548 l -6.6302475700983825 4.77369696863509" fill="red" stroke="none" /><path d="M 117.04232023915458 87.72973835380427 l 29.68201282556042 -21.37068535530765 a57.57496518019251,57.57496518019251 0 0,0 0.5721508880160494,0.8092668555005987 l -30.045476333380353 20.85659199947526" fill="red" stroke="none" /><path d="M 117.65298651832404 88.62581576622439 l 13.057642837023801 -8.413309279593191 a36.53337727261422,36.53337727261422 0 0,0 0.33605906214306003,0.5315647315519825 l -13.200529495412816 8.187296900327004" fill="red" stroke="none" /><line stroke="#e1ed5e" stroke-width="0.3" x1="172.23445277983987" x2="176.4835382374775" y1="55.19839476539836" y2="52.563006222186495" /><path d="M 173.08426987136738 54.67131705675599 a86.0,86.0 0 0,1 12.851231095245387,41.99856678651699" fill="none" id="id51" stroke="none" /><text fill="#e1ed5e" style="font-size:6.75px; font-family:Arial;" text-anchor="middle"><textPath startOffset="22.20632615414155" xlink:href="#id51">March</textPath></text><path d="M 117.84615892207809 88.93136811851018 l 23.14797546035145 -14.3569504390895 a48.23877372099385,48.23877372099385 0 0,0 0.4315858805819242,0.7094137098102025 l -23.391677139219595 13.956368956072216" fill="red" stroke="none" /><path d="M 120.73433829027371 96.67025291283417 l 24.219176323173723 -3.889380538055202 a45.529488024473345,45.529488024473345 0 0,0 0.1176050666692215,0.7748704491562305 l -24.282537283282245 3.471910976506889" fill="red" stroke="none" /><path d="M 120.87857604477298 97.74499172005257 l 8.982066542901723 -0.9701157005078885 a30.03430372820653,30.03430372820653 0 0,0 0.05109103130021393,0.5144797128233765 l -8.997434699884165 0.8153604569800772" fill="red" stroke="none" /><line stroke="#e1ed5e" stroke-width="0.3" x1="184.98032266829074" x2="189.97916517819016" y1="98.17113171792111" y2="98.06355123074" /><path d="M 185.9800911702706 98.14961562048488 a86.0,86.0 0 0,1 -9.607161424134198,41.387399972396054" fill="none" id="id52" stroke="none" /><text fill="#e1ed5e" style="font-size:6.75px; font-family:Arial;" text-anchor="middle"><textPath startOffset="21.466115282336823" xlink:href="#id52">April</textPath></text><path d="M 120.89721153311464 102.0752229133903 l 15.78965538897658 1.5680108614403745 a36.86732098888253,36.86732098888253 0 0,0 -0.06814783574335162,0.6309643221742101 l -15.760325251732176 -1.839571505499376" fill="red" stroke="none" /><path d="M 120.02730092923936 106.31721596034902 l 25.5687794342361 8.065165750457156 a47.81062066306862,47.81062066306862 0 0,0 -0.25432461008511925,0.7827306655574926 l -25.426162573134732 -8.504095315992444" fill="red" stroke="none" /><path d="M 119.9155931802556 106.66101706037122 l 11.166083707149365 3.7346351372849487 a32.7740785186659,32.7740785186659 0 0,0 -0.1835491495800765,0.5334797461321235 l -11.100143726626058 -3.9262875865063727" fill="red" stroke="none" /><path d="M 119.41010516605496 108.01547362559984 l 44.21173188360078 18.25739571338549 a68.83314472604272,68.83314472604272 0 0,0 -0.4616705188624244,1.0912527313241613 l -43.89091038354605 -19.015722970375812" fill="red" stroke="none" /><path d="M 119.26925614724726 108.34839909993367 l 57.80776844174181 25.045197299801014 a84.0,84.0 0 0,0 -0.5862356610749084,1.3218066540292492 l -57.368091695935625 -26.036552290322952" fill="red" stroke="none" /><path d="M 119.12269723197855 108.67885076344098 l 24.714161156363737 11.216540941777936 a48.14038600243738,48.14038600243738 0 0,0 -0.34896136689045,0.7516317392214426 l -24.517425172633455 -11.64029274827821" fill="red" stroke="none" /><path d="M 118.97047184881838 109.00673069616215 l 19.802172777798518 9.40160259743954 a42.92067923495909,42.92067923495909 0 0,0 -0.32261378291060705,0.6646799478419319 l -19.6374057382732 -9.741071501246747" fill="red" stroke="none" /><line stroke="#e1ed5e" stroke-width="0.3" x1="174.80103733775053" x2="179.2010983576182" y1="140.37084112569926" y2="142.7455964860345" /><path d="M 175.68104954172406 140.8457921977663 a86.0,86.0 0 0,1 -30.038265399797805,32.042727171017184" fill="none" id="id53" stroke="none" /><text fill="#e1ed5e" style="font-size:6.75px; font-family:Arial;" text-anchor="middle"><textPath startOffset="22.206326154141568" xlink:href="#id53">May</textPath></text><line stroke="#e1ed5e" stroke-width="0.3" x1="143.8653032363475" x2="146.44561519142675" y1="172.8068346515853" y2="177.08958963109032" /><path d="M 144.38136562736335 173.6633856474863 a86.0,86.0 0 0,1 -40.68145358897372,12.25698825130547" fill="none" id="id54" stroke="none" /><text fill="#e1ed5e" style="font-size:6.75px; font-family:Arial;" text-anchor="middle"><textPath startOffset="21.466115282336833" xlink:href="#id54">June</textPath></text><line stroke="#e1ed5e" stroke-width="0.3" x1="102.19456741930631" x2="102.32365962044197" y1="184.97166512339345" y2="189.96999836594603" /><path d="M 102.22038585953345 185.97133177190398 a86.0,86.0 0 0,1 -42.740103519485714,-10.115201625700543" fill="none" id="id55" stroke="none" /><text fill="#e1ed5e" style="font-size:6.75px; font-family:Arial;" text-anchor="middle"><textPath startOffset="22.20632615414155" xlink:href="#id55">July</textPath></text><line stroke="#e1ed5e" stroke-width="0.3" x1="58.666819895761336" x2="56.23545636021788" y1="174.27360380694188" y2="178.64263932499728" /><path d="M 58.180547188652646 175.14741091055294 a86.0,86.0 0 0,1 -31.652253787137756,-30.449443065178592" fill="none" id="id56" stroke="none" /><text fill="#e1ed5e" style="font-size:6.75px; font-family:Arial;" text-anchor="middle"><textPath startOffset="22.20632615414155" xlink:href="#id56">August</textPath></text><line stroke="#e1ed5e" stroke-width="0.3" x1="26.63291911575756" x2="22.317208475507996" y1="142.92168965132927" y2="145.44649492493687" /><path d="M 25.769776987707644 143.4266507060508 a86.0,86.0 0 0,1 -11.730757126820373,-40.83630448921669" fill="none" id="id57" stroke="none" /><text fill="#e1ed5e" style="font-size:6.75px; font-family:Arial;" text-anchor="middle"><textPath startOffset="21.46611528233685" xlink:href="#id57">September</textPath></text><line stroke="#e1ed5e" stroke-width="0.3" x1="15.007084014347285" x2="10.007500721073583" y1="101.09737516637583" y2="101.16192664675087" /><path d="M 14.007167355692545 101.11028546245083 a86.0,86.0 0 0,1 10.666146001902534,-42.60595125391555" fill="none" id="id58" stroke="none" /><text fill="#e1ed5e" style="font-size:6.75px; font-family:Arial;" text-anchor="middle"><textPath startOffset="22.20632615414155" xlink:href="#id58">October</textPath></text><line stroke="#e1ed5e" stroke-width="0.3" x1="26.266209847984243" x2="21.928928074336255" y1="57.711370442889674" y2="55.22380399835377" /><path d="M 25.398753493254645 57.213857153982495 a86.0,86.0 0 0,1 29.58750427330803,-30.492523968695096" fill="none" id="id59" stroke="none" /><text fill="#e1ed5e" style="font-size:6.75px; font-family:Arial;" text-anchor="middle"><textPath startOffset="21.46611528233685" xlink:href="#id59">November</textPath></text><line stroke="#e1ed5e" stroke-width="0.3" x1="56.762969772571076" x2="54.21961505331055" y1="26.818313649435495" y2="22.513508569990535" /><path d="M 56.25429882871897 25.957352633546506 a86.0,86.0 0 0,1 42.265352541879196,-11.944610805530505" fill="none" id="id60" stroke="none" /><text fill="#e1ed5e" style="font-size:6.75px; font-family:Arial;" text-anchor="middle"><textPath startOffset="22.20632615414155" xlink:href="#id60">December</textPath></text></svg>